<?xml version="1.0" encoding="UTF-8"?>
<svg width="1200pt" height="1200pt" version="1.1" viewBox="0 0 1200 1200" xmlns="http://www.w3.org/2000/svg">
 <path d="m743.86 673.4 190.13-190.13c22.547-22.547 52.172-33.797 81.75-33.797 29.625 0 59.25 11.25 81.797 33.797l39.938 39.938c22.547 22.547 33.797 52.172 33.797 81.797 0 29.578-11.25 59.25-33.797 81.797l-455.68 455.68c-22.547 22.547-52.172 33.797-81.797 33.797-29.578 0-59.25-11.25-81.797-33.797l-455.68-455.68c-22.547-22.547-33.797-52.172-33.797-81.797 0-29.578 11.25-59.25 33.797-81.797l39.938-39.938c22.547-22.547 52.172-33.797 81.797-33.797 29.578 0 59.203 11.25 81.75 33.797l190.13 190.13v-534c0-31.875 12.984-60.797 33.938-81.703 20.953-20.953 49.875-33.938 81.703-33.938h56.438c31.875 0 60.797 12.984 81.703 33.938 20.906 20.906 33.938 49.875 33.938 81.703z" fill="#fff" fill-rule="evenodd"/>
</svg>
