<?xml version="1.0" encoding="UTF-8"?>
<svg width="1200pt" height="1200pt" version="1.1" viewBox="0 0 1200 1200" xmlns="http://www.w3.org/2000/svg">
 <path d="m442.51 397.49c14.078-14.078 41.723-25.492 61.465-25.492h384.05c19.867 0 35.973 16.23 35.973 35.973v384.05c0 19.867-16.23 35.973-35.973 35.973h-384.05c-19.867 0-47.434-11.461-61.465-25.492l-177.02-177.02c-14.078-14.078-14.031-36.953 0-50.984zm215.31 215.23-81.816 81.82c-6.9609 6.957-7.0312 18.422 0 25.453 7.0781 7.0781 18.426 7.0312 25.453 0l81.82-81.816c6.9609-6.9609 18.426-7.0312 25.453 0l81.82 81.816c6.957 6.9609 18.422 7.0312 25.453 0 7.0781-7.0781 7.0312-18.426 0-25.453l-81.816-81.82c-6.9609-6.9609-7.0312-18.426 0-25.453l81.816-81.82c6.9609-6.957 7.0312-18.422 0-25.453-7.0781-7.0781-18.426-7.0312-25.453 0l-81.82 81.816c-6.9609 6.9609-18.426 7.0312-25.453 0l-81.82-81.816c-6.957-6.9609-18.422-7.0312-25.453 0-7.0781 7.0781-7.0312 18.426 0 25.453l81.816 81.82c6.9609 6.9609 7.0312 18.426 0 25.453z" fill="#fff" fill-rule="evenodd"/>
</svg>
