<?xml version="1.0" encoding="UTF-8"?>
<svg width="1200pt" height="1200pt" version="1.1" viewBox="0 0 1200 1200" xmlns="http://www.w3.org/2000/svg">
 <path d="m1044 390c0-26.391-10.781-51.609-28.781-70.781l-160.82-159.61c-27.609-27.609-73.219-27.609-102 0-27.609 27.609-27.609 73.219 0 102l57.609 57.609h-282c-205.22 0-372 166.78-372 372s166.78 372 372 372h288c39.609 0 72-32.391 72-72s-32.391-72-72-72h-288c-126 0-228-102-228-228s102-228 228-228h282l-57.609 57.609c-27.609 27.609-27.609 73.219 0 102 14.391 14.391 32.391 21.609 50.391 21.609s37.219-7.2188 50.391-21.609l160.78-160.78c20.438-20.438 30.047-45.656 30.047-72.047z" fill="#fff"/>
</svg>
