<?xml version="1.0" encoding="UTF-8"?>
<svg width="1200pt" height="1200pt" version="1.1" viewBox="0 0 1200 1200" xmlns="http://www.w3.org/2000/svg">
 <path d="m854.4 465.6c-6.5234-6.5234-15.371-10.188-24.598-10.188-9.2266 0-18.074 3.6641-24.602 10.188l-194.4 195.6-192-192c-6.4688-6.7891-15.402-10.684-24.777-10.797-9.375-0.11328-18.402 3.5586-25.031 10.191-6.6289 6.6289-10.305 15.656-10.191 25.031 0.11719 9.375 4.0078 18.309 10.801 24.773l216 216c6.5234 6.5234 15.371 10.188 24.598 10.188 9.2266 0 18.074-3.6641 24.602-10.188l219.6-219.6c6.5234-6.5273 10.188-15.375 10.188-24.602 0-9.2266-3.6641-18.074-10.188-24.598z" fill="#fff"/>
</svg>
