<?xml version="1.0" encoding="UTF-8"?>
<svg width="1200pt" height="1200pt" version="1.1" viewBox="0 0 1200 1200" xmlns="http://www.w3.org/2000/svg">
 <path d="m791.21 312h-382.78c-53.156 0-96.422 43.266-96.422 96.422v382.78c0 53.391 43.266 96.797 96.422 96.797h382.78c53.391 0 96.797-43.406 96.797-96.797v-382.78c0-53.156-43.406-96.422-96.797-96.422zm4.0781 424.13c0 37.266-30.281 67.641-67.359 67.641h-119.95c-36.141 0-65.719-28.781-67.219-64.781h-110.53c-15.047 0-27.375-12.328-27.375-27.375s12.328-27.375 27.375-27.375h110.53c1.2188-36.141 30.938-65.203 67.219-65.203h119.95c37.125 0 67.359 30.375 67.359 67.641zm-27.375-220.36h-110.25c-1.2188 36-31.078 64.781-67.5 64.781h-119.95c-37.125 0-67.359-30.141-67.359-67.219v-49.734c0-37.266 30.281-67.359 67.359-67.359h119.95c36.422 0 66.141 28.781 67.5 64.781h110.25c15.047 0 27.375 12.328 27.375 27.375 0 15.047-12.328 27.375-27.375 27.375zm-164.76-52.172v49.734c0 6.7031-6.1406 12.609-13.031 12.609h-119.95c-6.8438 0-12.609-5.9062-12.609-12.609v-49.734c0-6.9844 5.625-12.75 12.609-12.75h119.95c7.1719 0 13.031 5.7656 13.031 12.75zm137.39 223.08v49.453c0 7.125-5.625 13.031-12.609 13.031h-119.95c-6.9844 0-12.609-5.9062-12.609-13.031v-49.453c0-7.125 5.625-12.891 12.609-12.891h119.95c6.9844 0.046876 12.609 5.8125 12.609 12.891z" fill="#fff"/>
</svg>
