<?xml version="1.0" encoding="UTF-8"?>
<svg width="1200pt" height="1200pt" version="1.1" viewBox="0 0 1200 1200" xmlns="http://www.w3.org/2000/svg">
 <path d="m609.98 204.1c-112.08-112.12-293.81-112.12-405.94 0-112.08 112.12-112.12 293.81 0 405.94 112.12 112.08 293.81 112.08 405.94 0 112.12-112.12 112.12-293.86 0-405.94zm-59.438 346.45c-38.062 38.062-89.672 59.438-143.53 59.438-53.812 0-105.42-21.375-143.48-59.438s-59.438-89.672-59.438-143.53c0-53.812 21.375-105.42 59.438-143.48s89.672-59.438 143.48-59.438c53.859 0 105.47 21.375 143.53 59.438s59.438 89.672 59.438 143.48c0 53.859-21.375 105.47-59.438 143.53z" fill="#fff"/>
 <path d="m642.61 760.5 117.94-117.94c2.9062-2.9062 7.5938-2.9062 10.5 0l287.53 287.58c13.734 13.688 21.469 32.344 21.469 51.75s-7.7344 38.016-21.469 51.75l-24.891 24.938c-28.594 28.594-74.953 28.594-103.55 0l-287.53-287.58c-2.9062-2.9062-2.9062-7.5938 0-10.5z" fill="#fff"/>
 <path d="m715.08 757.08c-11.156 0-21.844-4.4062-29.719-12.328l-118.59-118.59 0.046875 0.046875c-15.938-16.5-15.703-42.703 0.51562-58.875 16.172-16.219 42.375-16.453 58.875-0.51562l118.59 118.59-0.046875-0.046875c12.047 12 15.609 30.094 9.1406 45.797-6.5156 15.703-21.844 25.922-38.812 25.922z" fill="#fff"/>
</svg>
