<svg xmlns="http://www.w3.org/2000/svg" xmlns:xlink="http://www.w3.org/1999/xlink" width="300" zoomAndPan="magnify" viewBox="0 0 224.87999 225" height="300" preserveAspectRatio="xMidYMid meet" version="1.0"><defs><clipPath id="4c482142a5"><path d="M 65 12 L 160 12 L 160 219.234375 L 65 219.234375 Z M 65 12 " clip-rule="nonzero"/></clipPath><clipPath id="5fe198b169"><path d="M 69.304688 175 L 155.484375 175 L 155.484375 214.03125 L 69.304688 214.03125 Z M 69.304688 175 " clip-rule="nonzero"/></clipPath><clipPath id="033aedfbbc"><path d="M 69.28125 186.636719 L 69.28125 199.800781 C 69.28125 207.667969 75.65625 214.042969 83.523438 214.042969 L 141.359375 214.042969 C 149.222656 214.042969 155.601562 207.667969 155.601562 199.800781 L 155.601562 186.636719 C 155.601562 178.769531 149.222656 172.394531 141.359375 172.394531 L 83.523438 172.394531 C 75.65625 172.394531 69.28125 178.769531 69.28125 186.636719 Z M 69.28125 186.636719 " clip-rule="nonzero"/></clipPath></defs><g clip-path="url(#4c482142a5)"><path fill="#ffffff" d="M 139.0625 42.164062 C 138.191406 42.265625 137.300781 42.316406 136.390625 42.316406 L 88.324219 42.316406 C 87.414062 42.316406 86.519531 42.265625 85.652344 42.164062 L 85.652344 69.039062 C 85.652344 71.398438 85.035156 73.710938 83.847656 75.746094 L 71.03125 97.847656 C 67.484375 103.953125 65.625 110.890625 65.625 117.941406 L 65.625 199.207031 C 65.625 210.273438 74.585938 219.234375 85.652344 219.234375 L 139.0625 219.234375 C 150.125 219.234375 159.089844 210.273438 159.089844 199.207031 L 159.089844 116.148438 C 159.089844 110.265625 157.535156 104.488281 154.582031 99.398438 L 140.863281 75.75 C 139.679688 73.714844 139.0625 71.402344 139.0625 69.039062 Z M 80.761719 33.738281 C 79.625 32.203125 78.976562 30.414062 78.976562 28.511719 L 78.976562 22.738281 C 78.976562 16.964844 84.949219 12.273438 92.328125 12.273438 L 132.382812 12.273438 C 139.761719 12.273438 145.738281 16.964844 145.738281 22.738281 L 145.738281 28.511719 C 145.738281 30.414062 145.085938 32.203125 143.949219 33.738281 C 141.824219 34.945312 139.1875 35.640625 136.390625 35.640625 L 88.320312 35.640625 C 85.527344 35.640625 82.890625 34.945312 80.761719 33.738281 Z M 80.761719 33.738281 " fill-opacity="1" fill-rule="evenodd"/></g><g clip-path="url(#5fe198b169)"><g clip-path="url(#033aedfbbc)"><path fill="#dc2626" d="M 41.792969 244.765625 C 49.71875 238.703125 58.945312 233.300781 64.375 236.472656 C 68.269531 238.75 67.136719 243.632812 70.824219 245.597656 C 77.644531 249.226562 85.515625 234.628906 100.777344 231.773438 C 116.601562 228.804688 121.003906 242.085938 138.929688 238.867188 C 142.035156 238.316406 155.988281 235.808594 162.523438 225.136719 C 166.605469 218.453125 166.421875 210.804688 170.632812 209.929688 C 174.367188 209.15625 176.964844 214.648438 179.851562 213.617188 C 183.113281 212.445312 184.367188 203.773438 181.691406 197.121094 C 178.042969 188.042969 167.757812 184.503906 163.539062 183.109375 C 141.371094 175.820312 133.078125 190.273438 108.980469 186.246094 C 90.058594 183.082031 84.492188 172.394531 74.140625 176.660156 C 68.585938 178.953125 65.691406 183.886719 58.199219 201.820312 C 53.582031 212.878906 47.832031 227.386719 41.792969 244.765625 Z M 41.792969 244.765625 " fill-opacity="1" fill-rule="nonzero"/></g></g></svg>