<?xml version="1.0" encoding="UTF-8"?>
<svg width="1200pt" height="1200pt" version="1.1" viewBox="0 0 1200 1200" xmlns="http://www.w3.org/2000/svg">
 <path d="m750 205.4c-4.875 0.5625-9.8906 0.84375-15 0.84375h-270c-5.1094 0-10.125-0.28125-15-0.84375v150.94c0 13.266-3.4688 26.25-10.125 37.688l-72 124.13c-19.922 34.312-30.375 73.266-30.375 112.88v456.47c0 62.156 50.344 112.5 112.5 112.5h300c62.156 0 112.5-50.344 112.5-112.5v-466.55c0-33.047-8.7188-65.484-25.312-94.078l-77.062-132.84c-6.6562-11.438-10.125-24.422-10.125-37.688zm-327.47-47.344c-6.375-8.625-10.031-18.656-10.031-29.344v-32.438c0-32.438 33.562-58.781 75-58.781h225c41.438 0 75 26.344 75 58.781v32.438c0 10.688-3.6562 20.719-10.031 29.344-11.953 6.7969-26.766 10.688-42.469 10.688h-270c-15.703 0-30.516-3.8906-42.469-10.688z" fill="#fff" fill-rule="evenodd"/>
</svg>
