<svg xmlns="http://www.w3.org/2000/svg" xmlns:xlink="http://www.w3.org/1999/xlink" width="300" zoomAndPan="magnify" viewBox="0 0 224.87999 225" height="300" preserveAspectRatio="xMidYMid meet" version="1.0"><defs><clipPath id="468dab57fa"><path d="M 65 12 L 160 12 L 160 219.148438 L 65 219.148438 Z M 65 12 " clip-rule="nonzero"/></clipPath></defs><g clip-path="url(#468dab57fa)"><path fill="#ffffff" d="M 138.976562 42.082031 C 138.109375 42.179688 137.214844 42.230469 136.304688 42.230469 L 88.238281 42.230469 C 87.328125 42.230469 86.433594 42.179688 85.566406 42.082031 L 85.566406 68.953125 C 85.566406 71.3125 84.949219 73.625 83.765625 75.660156 L 70.945312 97.761719 C 67.398438 103.871094 65.539062 110.804688 65.539062 117.855469 L 65.539062 199.121094 C 65.539062 210.1875 74.5 219.152344 85.566406 219.152344 L 138.976562 219.152344 C 150.042969 219.152344 159.003906 210.1875 159.003906 199.121094 L 159.003906 116.0625 C 159.003906 110.179688 157.453125 104.402344 154.496094 99.3125 L 140.777344 75.664062 C 139.59375 73.628906 138.976562 71.316406 138.976562 68.953125 Z M 80.675781 33.652344 C 79.542969 32.117188 78.890625 30.332031 78.890625 28.429688 L 78.890625 22.652344 C 78.890625 16.878906 84.867188 12.1875 92.242188 12.1875 L 132.300781 12.1875 C 139.675781 12.1875 145.652344 16.878906 145.652344 22.652344 L 145.652344 28.429688 C 145.652344 30.332031 145 32.117188 143.867188 33.652344 C 141.738281 34.863281 139.101562 35.554688 136.304688 35.554688 L 88.238281 35.554688 C 85.441406 35.554688 82.804688 34.863281 80.675781 33.652344 Z M 80.675781 33.652344 " fill-opacity="1" fill-rule="evenodd"/></g><path stroke-linecap="butt" transform="matrix(0.7496, 0, 0, 0.7496, 71.652231, 11.9934)" fill="none" stroke-linejoin="miter" d="M 0.000150534 17.502511 L 107.620057 17.502511 " stroke="#dc2626" stroke-width="35" stroke-opacity="1" stroke-miterlimit="4"/></svg>