<?xml version="1.0" encoding="UTF-8"?>
<svg width="1200pt" height="1200pt" version="1.1" viewBox="0 0 1200 1200" xmlns="http://www.w3.org/2000/svg">
 <path d="m1137.1 696.82-185.77 49.77-115.56-66.801-0.003907 0.003906c19.023-51.512 19.023-108.12 0-159.63l115.56-66.809 185.77 49.781c17.164 4.3672 35.363-0.67188 47.836-13.25 12.477-12.578 17.363-30.816 12.848-47.945-4.5117-17.129-17.754-30.594-34.805-35.391l-89.289-23.926 27.145-15.691c11.477-6.6328 19.852-17.555 23.277-30.359 3.4297-12.805 1.6289-26.449-5-37.93-6.6328-11.48-17.559-19.855-30.371-23.281-12.809-3.4258-26.457-1.625-37.938 5.0117l-25.859 14.949 23.398-87.328c4.3711-17.168-0.66797-35.367-13.246-47.84s-30.816-17.359-47.945-12.848c-17.129 4.5156-30.594 17.754-35.391 34.805l-49.309 184-117.08 67.676c-35.477-40.113-82.934-67.723-135.34-78.734v-84.352l135.35-135.35c12.266-12.703 16.922-30.93 12.254-47.957-4.668-17.027-17.973-30.332-35-35-17.027-4.668-35.254-0.011719-47.957 12.254l-64.648 64.648v-29.297c0-17.863-9.5312-34.371-25-43.301-15.469-8.9336-34.531-8.9336-50 0-15.469 8.9297-25 25.438-25 43.301v29.297l-64.648-64.648c-12.703-12.266-30.93-16.922-47.957-12.254-17.027 4.668-30.332 17.973-35 35-4.668 17.027-0.011719 35.254 12.254 47.957l135.35 135.35v84.352c-52.781 11.105-100.53 39.043-136.07 79.617l-115.87-66.816-49.777-185.76c-4.6992-17.168-18.176-30.543-35.379-35.117-17.203-4.5742-35.543 0.34375-48.148 12.914-12.605 12.566-17.578 30.891-13.059 48.109l23.926 89.285-27.16-15.684c-11.48-6.625-25.125-8.418-37.93-4.9844-12.805 3.4336-23.719 11.812-30.348 23.293v0.023438c-6.6289 11.484-8.4219 25.133-4.9883 37.938 3.4336 12.809 11.812 23.727 23.297 30.355l25.879 14.926-87.324 23.398c-17.051 4.7969-30.293 18.262-34.805 35.391-4.5156 17.129 0.37109 35.367 12.848 47.945 12.473 12.578 30.672 17.617 47.836 13.25l184-49.309 116.97 67.445 0.003906-0.003907c-8.8867 25.312-13.582 51.906-13.906 78.73 0.33203 26.812 5.0312 53.395 13.914 78.695l-116.95 67.441-184-49.309v-0.003906c-17.145-4.3008-35.285 0.76562-47.715 13.328-12.43 12.562-17.305 30.758-12.824 47.852 4.4844 17.098 17.66 30.555 34.656 35.402l87.336 23.398-25.879 14.926c-11.488 6.625-19.875 17.543-23.312 30.348-3.4375 12.809-1.6484 26.461 4.9766 37.945 6.6289 11.48 17.547 19.859 30.352 23.293 12.801 3.4336 26.445 1.6406 37.93-4.9805l27.16-15.656-23.938 89.32c-3.6328 12.875-1.9609 26.668 4.6523 38.297 6.6094 11.633 17.605 20.129 30.527 23.59 12.922 3.4609 26.695 1.6016 38.234-5.168 11.539-6.7656 19.887-17.875 23.172-30.844l49.773-185.76 115.84-66.797 0.003906 0.003906c35.543 40.582 83.301 68.523 136.09 79.625v84.352l-135.35 135.35c-12.266 12.703-16.922 30.93-12.254 47.957 4.668 17.027 17.973 30.332 35 35 17.027 4.668 35.254 0.011719 47.957-12.254l64.648-64.648v29.297c0 17.863 9.5312 34.371 25 43.301 15.469 8.9336 34.531 8.9336 50 0 15.469-8.9297 25-25.438 25-43.301v-29.297l64.648 64.645v0.003906c12.703 12.266 30.93 16.922 47.957 12.254 17.027-4.668 30.332-17.973 35-35 4.668-17.027 0.011719-35.254-12.254-47.957l-135.35-135.35v-84.352c52.418-11.016 99.887-38.637 135.36-78.762l117.04 67.656 49.309 184h0.003907c3.2852 12.969 11.633 24.078 23.172 30.844 11.539 6.7695 25.312 8.6289 38.234 5.168 12.922-3.4609 23.918-11.957 30.527-23.59 6.6133-11.629 8.2852-25.422 4.6523-38.297l-23.398-87.336 25.859 14.949h-0.003906c11.48 6.6367 25.129 8.4414 37.938 5.0156 12.812-3.4258 23.738-11.797 30.375-23.277v-0.027344c6.625-11.48 8.4219-25.121 4.9961-37.926-3.4297-12.805-11.801-23.723-23.277-30.359l-27.145-15.695 89.289-23.926v0.003907c16.996-4.8477 30.172-18.305 34.656-35.402 4.4844-17.094-0.39063-35.289-12.82-47.852-12.434-12.562-30.574-17.629-47.715-13.328zm-537.07 53.176c-39.781 0-77.938-15.805-106.07-43.934s-43.934-66.285-43.934-106.07 15.805-77.938 43.934-106.07 66.285-43.934 106.07-43.934 77.938 15.805 106.07 43.934 43.934 66.285 43.934 106.07c-0.042969 39.77-15.859 77.898-43.98 106.02-28.121 28.121-66.25 43.938-106.02 43.98z" fill="#fff"/>
</svg>
