<svg xmlns="http://www.w3.org/2000/svg" xmlns:xlink="http://www.w3.org/1999/xlink" width="500" zoomAndPan="magnify" viewBox="0 0 375 187.499995" height="250" preserveAspectRatio="xMidYMid meet" version="1.2"><defs><clipPath id="95a477329e"><path d="M 193 3 L 275 3 L 275 183.386719 L 193 183.386719 Z M 193 3 "/></clipPath><clipPath id="f43e51c130"><path d="M 285 3 L 368 3 L 368 183.386719 L 285 183.386719 Z M 285 3 "/></clipPath><clipPath id="62a174fbdd"><path d="M 8 3 L 90 3 L 90 183.386719 L 8 183.386719 Z M 8 3 "/></clipPath><clipPath id="c043c551b5"><path d="M 100 3 L 182 3 L 182 183.386719 L 100 183.386719 Z M 100 3 "/></clipPath></defs><g id="f4f771aa7b"><g clip-rule="nonzero" clip-path="url(#95a477329e)"><path style=" stroke:none;fill-rule:evenodd;fill:#ffffff;fill-opacity:1;" d="M 257.125 29.636719 C 256.371094 29.722656 255.59375 29.765625 254.804688 29.765625 L 213.066406 29.765625 C 212.277344 29.765625 211.5 29.722656 210.746094 29.636719 L 210.746094 52.96875 C 210.746094 55.019531 210.210938 57.027344 209.183594 58.796875 L 198.050781 77.984375 C 194.972656 83.289062 193.355469 89.3125 193.355469 95.433594 L 193.355469 166 C 193.355469 175.609375 201.136719 183.390625 210.746094 183.390625 L 257.125 183.390625 C 266.730469 183.390625 274.515625 175.609375 274.515625 166 L 274.515625 93.875 C 274.515625 88.769531 273.167969 83.753906 270.601562 79.332031 L 258.6875 58.796875 C 257.660156 57.03125 257.125 55.023438 257.125 52.972656 Z M 206.5 22.316406 C 205.515625 20.984375 204.949219 19.433594 204.949219 17.78125 L 204.949219 12.765625 C 204.949219 7.753906 210.136719 3.679688 216.542969 3.679688 L 251.324219 3.679688 C 257.730469 3.679688 262.921875 7.753906 262.921875 12.765625 L 262.921875 17.78125 C 262.921875 19.433594 262.355469 20.984375 261.371094 22.316406 C 259.523438 23.367188 257.230469 23.96875 254.804688 23.96875 L 213.066406 23.96875 C 210.636719 23.96875 208.347656 23.367188 206.5 22.316406 Z M 206.5 22.316406 "/></g><g clip-rule="nonzero" clip-path="url(#f43e51c130)"><path style=" stroke:none;fill-rule:evenodd;fill:#ffffff;fill-opacity:1;" d="M 349.757812 29.636719 C 349.003906 29.722656 348.230469 29.765625 347.441406 29.765625 L 305.699219 29.765625 C 304.910156 29.765625 304.136719 29.722656 303.382812 29.636719 L 303.382812 52.96875 C 303.382812 55.019531 302.847656 57.027344 301.816406 58.796875 L 290.6875 77.984375 C 287.605469 83.289062 285.992188 89.3125 285.992188 95.433594 L 285.992188 166 C 285.992188 175.609375 293.773438 183.390625 303.382812 183.390625 L 349.757812 183.390625 C 359.367188 183.390625 367.148438 175.609375 367.148438 166 L 367.148438 93.875 C 367.148438 88.769531 365.800781 83.753906 363.238281 79.332031 L 351.324219 58.796875 C 350.292969 57.03125 349.757812 55.023438 349.757812 52.972656 Z M 299.136719 22.316406 C 298.148438 20.984375 297.585938 19.433594 297.585938 17.78125 L 297.585938 12.765625 C 297.585938 7.753906 302.773438 3.679688 309.179688 3.679688 L 343.960938 3.679688 C 350.367188 3.679688 355.554688 7.753906 355.554688 12.765625 L 355.554688 17.78125 C 355.554688 19.433594 354.988281 20.984375 354.003906 22.316406 C 352.15625 23.367188 349.867188 23.96875 347.4375 23.96875 L 305.699219 23.96875 C 303.273438 23.96875 300.984375 23.367188 299.136719 22.316406 Z M 299.136719 22.316406 "/></g><g clip-rule="nonzero" clip-path="url(#62a174fbdd)"><path style=" stroke:none;fill-rule:evenodd;fill:#dc2626;fill-opacity:1;" d="M 71.699219 29.59375 C 70.945312 29.679688 70.171875 29.722656 69.382812 29.722656 L 27.699219 29.722656 C 26.910156 29.722656 26.136719 29.679688 25.382812 29.59375 L 25.382812 52.894531 C 25.382812 54.941406 24.847656 56.949219 23.820312 58.714844 L 12.707031 77.878906 C 9.628906 83.175781 8.015625 89.1875 8.015625 95.304688 L 8.015625 165.773438 C 8.015625 175.371094 15.789062 183.144531 25.382812 183.144531 L 71.699219 183.144531 C 81.296875 183.144531 89.066406 175.371094 89.066406 165.773438 L 89.066406 93.746094 C 89.066406 88.644531 87.722656 83.636719 85.160156 79.222656 L 73.261719 58.714844 C 72.234375 56.949219 71.699219 54.945312 71.699219 52.898438 Z M 21.144531 22.285156 C 20.160156 20.953125 19.59375 19.402344 19.59375 17.753906 L 19.59375 12.746094 C 19.59375 7.738281 24.777344 3.671875 31.171875 3.671875 L 65.910156 3.671875 C 72.308594 3.671875 77.488281 7.738281 77.488281 12.746094 L 77.488281 17.753906 C 77.488281 19.402344 76.925781 20.953125 75.941406 22.285156 C 74.09375 23.332031 71.808594 23.933594 69.382812 23.933594 L 27.699219 23.933594 C 25.277344 23.933594 22.988281 23.332031 21.144531 22.285156 Z M 21.144531 22.285156 "/></g><g clip-rule="nonzero" clip-path="url(#c043c551b5)"><path style=" stroke:none;fill-rule:evenodd;fill:#dc2626;fill-opacity:1;" d="M 164.335938 29.59375 C 163.582031 29.679688 162.808594 29.722656 162.019531 29.722656 L 120.335938 29.722656 C 119.546875 29.722656 118.773438 29.679688 118.019531 29.59375 L 118.019531 52.894531 C 118.019531 54.941406 117.484375 56.949219 116.457031 58.714844 L 105.339844 77.878906 C 102.265625 83.175781 100.652344 89.1875 100.652344 95.304688 L 100.652344 165.773438 C 100.652344 175.371094 108.421875 183.144531 118.019531 183.144531 L 164.335938 183.144531 C 173.929688 183.144531 181.703125 175.371094 181.703125 165.773438 L 181.703125 93.746094 C 181.703125 88.644531 180.355469 83.636719 177.796875 79.222656 L 165.898438 58.714844 C 164.871094 56.949219 164.335938 54.945312 164.335938 52.898438 Z M 113.777344 22.285156 C 112.792969 20.953125 112.230469 19.402344 112.230469 17.753906 L 112.230469 12.746094 C 112.230469 7.738281 117.410156 3.671875 123.808594 3.671875 L 158.546875 3.671875 C 164.941406 3.671875 170.125 7.738281 170.125 12.746094 L 170.125 17.753906 C 170.125 19.402344 169.558594 20.953125 168.574219 22.285156 C 166.730469 23.332031 164.441406 23.933594 162.019531 23.933594 L 120.335938 23.933594 C 117.910156 23.933594 115.625 23.332031 113.777344 22.285156 Z M 113.777344 22.285156 "/></g></g></svg>