<svg xmlns="http://www.w3.org/2000/svg" xmlns:xlink="http://www.w3.org/1999/xlink" width="500" zoomAndPan="magnify" viewBox="0 0 375 187.499995" height="250" preserveAspectRatio="xMidYMid meet" version="1.2"><defs><clipPath id="0e46211f92"><path d="M 193 3 L 275 3 L 275 183.386719 L 193 183.386719 Z M 193 3 "/></clipPath><clipPath id="8e07427d01"><path d="M 285 3 L 367 3 L 367 183.386719 L 285 183.386719 Z M 285 3 "/></clipPath><clipPath id="36b6085955"><path d="M 8 3 L 90 3 L 90 183.386719 L 8 183.386719 Z M 8 3 "/></clipPath><clipPath id="e51d4d8eae"><path d="M 100 3 L 182 3 L 182 183.386719 L 100 183.386719 Z M 100 3 "/></clipPath></defs><g id="dad0720074"><g clip-rule="nonzero" clip-path="url(#0e46211f92)"><path style=" stroke:none;fill-rule:evenodd;fill:#dc2626;fill-opacity:1;" d="M 256.96875 29.59375 C 256.21875 29.679688 255.441406 29.722656 254.652344 29.722656 L 212.96875 29.722656 C 212.183594 29.722656 211.40625 29.679688 210.65625 29.59375 L 210.65625 52.894531 C 210.65625 54.941406 210.121094 56.949219 209.089844 58.714844 L 197.976562 77.878906 C 194.902344 83.175781 193.285156 89.1875 193.285156 95.304688 L 193.285156 165.773438 C 193.285156 175.371094 201.058594 183.144531 210.65625 183.144531 L 256.96875 183.144531 C 266.566406 183.144531 274.339844 175.371094 274.339844 165.773438 L 274.339844 93.746094 C 274.339844 88.644531 272.992188 83.636719 270.429688 79.222656 L 258.53125 58.714844 C 257.503906 56.949219 256.96875 54.945312 256.96875 52.898438 Z M 206.414062 22.285156 C 205.429688 20.953125 204.867188 19.402344 204.867188 17.753906 L 204.867188 12.746094 C 204.867188 7.738281 210.046875 3.671875 216.445312 3.671875 L 251.179688 3.671875 C 257.578125 3.671875 262.757812 7.738281 262.757812 12.746094 L 262.757812 17.753906 C 262.757812 19.402344 262.195312 20.953125 261.210938 22.285156 C 259.363281 23.332031 257.078125 23.933594 254.652344 23.933594 L 212.96875 23.933594 C 210.546875 23.933594 208.257812 23.332031 206.414062 22.285156 Z M 206.414062 22.285156 "/></g><g clip-rule="nonzero" clip-path="url(#8e07427d01)"><path style=" stroke:none;fill-rule:evenodd;fill:#dc2626;fill-opacity:1;" d="M 349.605469 29.59375 C 348.851562 29.679688 348.078125 29.722656 347.289062 29.722656 L 305.605469 29.722656 C 304.816406 29.722656 304.042969 29.679688 303.289062 29.59375 L 303.289062 52.894531 C 303.289062 54.941406 302.753906 56.949219 301.726562 58.714844 L 290.613281 77.878906 C 287.535156 83.175781 285.921875 89.1875 285.921875 95.304688 L 285.921875 165.773438 C 285.921875 175.371094 293.695312 183.144531 303.289062 183.144531 L 349.605469 183.144531 C 359.199219 183.144531 366.972656 175.371094 366.972656 165.773438 L 366.972656 93.746094 C 366.972656 88.644531 365.628906 83.636719 363.066406 79.222656 L 351.167969 58.714844 C 350.140625 56.949219 349.605469 54.945312 349.605469 52.898438 Z M 299.050781 22.285156 C 298.066406 20.953125 297.5 19.402344 297.5 17.753906 L 297.5 12.746094 C 297.5 7.738281 302.683594 3.671875 309.078125 3.671875 L 343.816406 3.671875 C 350.210938 3.671875 355.394531 7.738281 355.394531 12.746094 L 355.394531 17.753906 C 355.394531 19.402344 354.828125 20.953125 353.84375 22.285156 C 352 23.332031 349.714844 23.933594 347.289062 23.933594 L 305.605469 23.933594 C 303.179688 23.933594 300.894531 23.332031 299.050781 22.285156 Z M 299.050781 22.285156 "/></g><g clip-rule="nonzero" clip-path="url(#36b6085955)"><path style=" stroke:none;fill-rule:evenodd;fill:#dc2626;fill-opacity:1;" d="M 71.699219 29.59375 C 70.945312 29.679688 70.171875 29.722656 69.382812 29.722656 L 27.699219 29.722656 C 26.910156 29.722656 26.136719 29.679688 25.382812 29.59375 L 25.382812 52.894531 C 25.382812 54.941406 24.847656 56.949219 23.820312 58.714844 L 12.707031 77.878906 C 9.628906 83.175781 8.015625 89.1875 8.015625 95.304688 L 8.015625 165.773438 C 8.015625 175.371094 15.789062 183.144531 25.382812 183.144531 L 71.699219 183.144531 C 81.296875 183.144531 89.066406 175.371094 89.066406 165.773438 L 89.066406 93.746094 C 89.066406 88.644531 87.722656 83.636719 85.160156 79.222656 L 73.261719 58.714844 C 72.234375 56.949219 71.699219 54.945312 71.699219 52.898438 Z M 21.144531 22.285156 C 20.160156 20.953125 19.59375 19.402344 19.59375 17.753906 L 19.59375 12.746094 C 19.59375 7.738281 24.777344 3.671875 31.171875 3.671875 L 65.910156 3.671875 C 72.308594 3.671875 77.488281 7.738281 77.488281 12.746094 L 77.488281 17.753906 C 77.488281 19.402344 76.925781 20.953125 75.941406 22.285156 C 74.09375 23.332031 71.808594 23.933594 69.382812 23.933594 L 27.699219 23.933594 C 25.277344 23.933594 22.988281 23.332031 21.144531 22.285156 Z M 21.144531 22.285156 "/></g><g clip-rule="nonzero" clip-path="url(#e51d4d8eae)"><path style=" stroke:none;fill-rule:evenodd;fill:#dc2626;fill-opacity:1;" d="M 164.335938 29.59375 C 163.582031 29.679688 162.808594 29.722656 162.019531 29.722656 L 120.335938 29.722656 C 119.546875 29.722656 118.773438 29.679688 118.019531 29.59375 L 118.019531 52.894531 C 118.019531 54.941406 117.484375 56.949219 116.457031 58.714844 L 105.339844 77.878906 C 102.265625 83.175781 100.652344 89.1875 100.652344 95.304688 L 100.652344 165.773438 C 100.652344 175.371094 108.421875 183.144531 118.019531 183.144531 L 164.335938 183.144531 C 173.929688 183.144531 181.703125 175.371094 181.703125 165.773438 L 181.703125 93.746094 C 181.703125 88.644531 180.355469 83.636719 177.796875 79.222656 L 165.898438 58.714844 C 164.871094 56.949219 164.335938 54.945312 164.335938 52.898438 Z M 113.777344 22.285156 C 112.792969 20.953125 112.230469 19.402344 112.230469 17.753906 L 112.230469 12.746094 C 112.230469 7.738281 117.410156 3.671875 123.808594 3.671875 L 158.546875 3.671875 C 164.941406 3.671875 170.125 7.738281 170.125 12.746094 L 170.125 17.753906 C 170.125 19.402344 169.558594 20.953125 168.574219 22.285156 C 166.730469 23.332031 164.441406 23.933594 162.019531 23.933594 L 120.335938 23.933594 C 117.910156 23.933594 115.625 23.332031 113.777344 22.285156 Z M 113.777344 22.285156 "/></g></g></svg>