<svg xmlns="http://www.w3.org/2000/svg" xmlns:xlink="http://www.w3.org/1999/xlink" width="500" zoomAndPan="magnify" viewBox="0 0 375 187.499995" height="250" preserveAspectRatio="xMidYMid meet" version="1.2"><defs><clipPath id="09082f15fc"><path d="M 193 3 L 275 3 L 275 183.386719 L 193 183.386719 Z M 193 3 "/></clipPath><clipPath id="9ee590992c"><path d="M 285 3 L 368 3 L 368 183.386719 L 285 183.386719 Z M 285 3 "/></clipPath><clipPath id="dba6db16ac"><path d="M 8 3 L 90 3 L 90 183.386719 L 8 183.386719 Z M 8 3 "/></clipPath><clipPath id="966f37af4f"><path d="M 100 3 L 182 3 L 182 183.386719 L 100 183.386719 Z M 100 3 "/></clipPath></defs><g id="a91b088395"><g clip-rule="nonzero" clip-path="url(#09082f15fc)"><path style=" stroke:none;fill-rule:evenodd;fill:#ffffff;fill-opacity:1;" d="M 257.125 29.636719 C 256.371094 29.722656 255.59375 29.765625 254.804688 29.765625 L 213.066406 29.765625 C 212.277344 29.765625 211.5 29.722656 210.746094 29.636719 L 210.746094 52.96875 C 210.746094 55.019531 210.210938 57.027344 209.183594 58.796875 L 198.050781 77.984375 C 194.972656 83.289062 193.355469 89.3125 193.355469 95.433594 L 193.355469 166 C 193.355469 175.609375 201.136719 183.390625 210.746094 183.390625 L 257.125 183.390625 C 266.730469 183.390625 274.515625 175.609375 274.515625 166 L 274.515625 93.875 C 274.515625 88.769531 273.167969 83.753906 270.601562 79.332031 L 258.6875 58.796875 C 257.660156 57.03125 257.125 55.023438 257.125 52.972656 Z M 206.5 22.316406 C 205.515625 20.984375 204.949219 19.433594 204.949219 17.78125 L 204.949219 12.765625 C 204.949219 7.753906 210.136719 3.679688 216.542969 3.679688 L 251.324219 3.679688 C 257.730469 3.679688 262.921875 7.753906 262.921875 12.765625 L 262.921875 17.78125 C 262.921875 19.433594 262.355469 20.984375 261.371094 22.316406 C 259.523438 23.367188 257.230469 23.96875 254.804688 23.96875 L 213.066406 23.96875 C 210.636719 23.96875 208.347656 23.367188 206.5 22.316406 Z M 206.5 22.316406 "/></g><g clip-rule="nonzero" clip-path="url(#9ee590992c)"><path style=" stroke:none;fill-rule:evenodd;fill:#ffffff;fill-opacity:1;" d="M 349.757812 29.636719 C 349.003906 29.722656 348.230469 29.765625 347.441406 29.765625 L 305.699219 29.765625 C 304.910156 29.765625 304.136719 29.722656 303.382812 29.636719 L 303.382812 52.96875 C 303.382812 55.019531 302.847656 57.027344 301.816406 58.796875 L 290.6875 77.984375 C 287.605469 83.289062 285.992188 89.3125 285.992188 95.433594 L 285.992188 166 C 285.992188 175.609375 293.773438 183.390625 303.382812 183.390625 L 349.757812 183.390625 C 359.367188 183.390625 367.148438 175.609375 367.148438 166 L 367.148438 93.875 C 367.148438 88.769531 365.800781 83.753906 363.238281 79.332031 L 351.324219 58.796875 C 350.292969 57.03125 349.757812 55.023438 349.757812 52.972656 Z M 299.136719 22.316406 C 298.148438 20.984375 297.585938 19.433594 297.585938 17.78125 L 297.585938 12.765625 C 297.585938 7.753906 302.773438 3.679688 309.179688 3.679688 L 343.960938 3.679688 C 350.367188 3.679688 355.554688 7.753906 355.554688 12.765625 L 355.554688 17.78125 C 355.554688 19.433594 354.988281 20.984375 354.003906 22.316406 C 352.15625 23.367188 349.867188 23.96875 347.4375 23.96875 L 305.699219 23.96875 C 303.273438 23.96875 300.984375 23.367188 299.136719 22.316406 Z M 299.136719 22.316406 "/></g><g clip-rule="nonzero" clip-path="url(#dba6db16ac)"><path style=" stroke:none;fill-rule:evenodd;fill:#ffffff;fill-opacity:1;" d="M 71.910156 29.636719 C 71.15625 29.722656 70.382812 29.765625 69.59375 29.765625 L 27.855469 29.765625 C 27.0625 29.765625 26.289062 29.722656 25.535156 29.636719 L 25.535156 52.96875 C 25.535156 55.019531 25 57.027344 23.96875 58.796875 L 12.839844 77.984375 C 9.757812 83.289062 8.144531 89.3125 8.144531 95.433594 L 8.144531 166 C 8.144531 175.609375 15.925781 183.390625 25.535156 183.390625 L 71.910156 183.390625 C 81.519531 183.390625 89.300781 175.609375 89.300781 166 L 89.300781 93.875 C 89.300781 88.769531 87.953125 83.753906 85.390625 79.332031 L 73.476562 58.796875 C 72.449219 57.03125 71.910156 55.023438 71.910156 52.972656 Z M 21.289062 22.316406 C 20.304688 20.984375 19.738281 19.433594 19.738281 17.78125 L 19.738281 12.765625 C 19.738281 7.753906 24.925781 3.679688 31.332031 3.679688 L 66.113281 3.679688 C 72.519531 3.679688 77.707031 7.753906 77.707031 12.765625 L 77.707031 17.78125 C 77.707031 19.433594 77.144531 20.984375 76.15625 22.316406 C 74.308594 23.367188 72.019531 23.96875 69.59375 23.96875 L 27.851562 23.96875 C 25.425781 23.96875 23.136719 23.367188 21.289062 22.316406 Z M 21.289062 22.316406 "/></g><g clip-rule="nonzero" clip-path="url(#966f37af4f)"><path style=" stroke:none;fill-rule:evenodd;fill:#ffffff;fill-opacity:1;" d="M 164.488281 29.636719 C 163.734375 29.722656 162.960938 29.765625 162.167969 29.765625 L 120.429688 29.765625 C 119.640625 29.765625 118.867188 29.722656 118.113281 29.636719 L 118.113281 52.96875 C 118.113281 55.019531 117.574219 57.027344 116.546875 58.796875 L 105.417969 77.984375 C 102.335938 83.289062 100.71875 89.3125 100.71875 95.433594 L 100.71875 166 C 100.71875 175.609375 108.503906 183.390625 118.113281 183.390625 L 164.488281 183.390625 C 174.097656 183.390625 181.878906 175.609375 181.878906 166 L 181.878906 93.875 C 181.878906 88.769531 180.53125 83.753906 177.964844 79.332031 L 166.054688 58.796875 C 165.023438 57.03125 164.488281 55.023438 164.488281 52.972656 Z M 113.863281 22.316406 C 112.878906 20.984375 112.3125 19.433594 112.3125 17.78125 L 112.3125 12.765625 C 112.3125 7.753906 117.503906 3.679688 123.910156 3.679688 L 158.691406 3.679688 C 165.097656 3.679688 170.285156 7.753906 170.285156 12.765625 L 170.285156 17.78125 C 170.285156 19.433594 169.71875 20.984375 168.734375 22.316406 C 166.886719 23.367188 164.597656 23.96875 162.167969 23.96875 L 120.429688 23.96875 C 118.003906 23.96875 115.714844 23.367188 113.863281 22.316406 Z M 113.863281 22.316406 "/></g></g></svg>