<svg xmlns="http://www.w3.org/2000/svg" xmlns:xlink="http://www.w3.org/1999/xlink" width="800" zoomAndPan="magnify" viewBox="0 0 600 299.999988" height="400" preserveAspectRatio="xMidYMid meet" version="1.2"><defs><clipPath id="feed62642f"><path d="M 33 37 L 135 37 L 135 259.5 L 33 259.5 Z M 33 37 "/></clipPath><clipPath id="5173659e7d"><path d="M 176 37 L 278 37 L 278 259.5 L 176 259.5 Z M 176 37 "/></clipPath><clipPath id="9478334f03"><path d="M 319 37 L 420 37 L 420 259.5 L 319 259.5 Z M 319 37 "/></clipPath><clipPath id="120666d32f"><path d="M 462 37 L 564 37 L 564 259.5 L 462 259.5 Z M 462 37 "/></clipPath><clipPath id="6bc87213bf"><path d="M 40 57 L 127 57 L 127 248.523438 L 40 248.523438 Z M 40 57 "/></clipPath><clipPath id="4bd928fff8"><path d="M 183 57 L 271 57 L 271 248.523438 L 183 248.523438 Z M 183 57 "/></clipPath><clipPath id="b7be2ce9de"><path d="M 326 57 L 413 57 L 413 248.523438 L 326 248.523438 Z M 326 57 "/></clipPath><clipPath id="39867cc8d7"><path d="M 469 57 L 556 57 L 556 248.523438 L 469 248.523438 Z M 469 57 "/></clipPath></defs><g id="4cf10e50ee"><g clip-rule="nonzero" clip-path="url(#feed62642f)"><path style=" stroke:none;fill-rule:evenodd;fill:#ffffff;fill-opacity:1;" d="M 112.652344 69.28125 C 111.71875 69.390625 110.761719 69.445312 109.785156 69.445312 L 58.148438 69.445312 C 57.167969 69.445312 56.210938 69.390625 55.277344 69.28125 L 55.277344 98.148438 C 55.277344 100.6875 54.613281 103.171875 53.339844 105.359375 L 39.570312 129.097656 C 35.761719 135.660156 33.761719 143.109375 33.761719 150.6875 L 33.761719 237.984375 C 33.761719 249.875 43.390625 259.5 55.277344 259.5 L 112.652344 259.5 C 124.539062 259.5 134.167969 249.875 134.167969 237.984375 L 134.167969 148.757812 C 134.167969 142.4375 132.5 136.234375 129.328125 130.765625 L 114.589844 105.359375 C 113.316406 103.171875 112.652344 100.6875 112.652344 98.152344 Z M 50.023438 60.226562 C 48.804688 58.578125 48.105469 56.660156 48.105469 54.617188 L 48.105469 48.414062 C 48.105469 42.207031 54.523438 37.171875 62.449219 37.171875 L 105.480469 37.171875 C 113.40625 37.171875 119.824219 42.207031 119.824219 48.414062 L 119.824219 54.617188 C 119.824219 56.660156 119.125 58.578125 117.90625 60.226562 C 115.621094 61.527344 112.789062 62.273438 109.785156 62.273438 L 58.148438 62.273438 C 55.144531 62.273438 52.308594 61.527344 50.023438 60.226562 Z M 50.023438 60.226562 "/></g><g clip-rule="nonzero" clip-path="url(#5173659e7d)"><path style=" stroke:none;fill-rule:evenodd;fill:#ffffff;fill-opacity:1;" d="M 255.820312 69.28125 C 254.886719 69.390625 253.929688 69.445312 252.953125 69.445312 L 201.3125 69.445312 C 200.335938 69.445312 199.378906 69.390625 198.445312 69.28125 L 198.445312 98.148438 C 198.445312 100.6875 197.78125 103.171875 196.507812 105.359375 L 182.738281 129.097656 C 178.929688 135.660156 176.929688 143.109375 176.929688 150.6875 L 176.929688 237.984375 C 176.929688 249.875 186.558594 259.5 198.445312 259.5 L 255.820312 259.5 C 267.707031 259.5 277.335938 249.875 277.335938 237.984375 L 277.335938 148.757812 C 277.335938 142.4375 275.667969 136.234375 272.496094 130.765625 L 257.757812 105.359375 C 256.484375 103.171875 255.820312 100.6875 255.820312 98.152344 Z M 193.191406 60.226562 C 191.972656 58.578125 191.273438 56.660156 191.273438 54.617188 L 191.273438 48.414062 C 191.273438 42.207031 197.691406 37.171875 205.617188 37.171875 L 248.648438 37.171875 C 256.574219 37.171875 262.992188 42.207031 262.992188 48.414062 L 262.992188 54.617188 C 262.992188 56.660156 262.292969 58.578125 261.074219 60.226562 C 258.789062 61.527344 255.953125 62.273438 252.949219 62.273438 L 201.3125 62.273438 C 198.308594 62.273438 195.476562 61.527344 193.191406 60.226562 Z M 193.191406 60.226562 "/></g><g clip-rule="nonzero" clip-path="url(#9478334f03)"><path style=" stroke:none;fill-rule:evenodd;fill:#ffffff;fill-opacity:1;" d="M 398.3125 69.28125 C 397.378906 69.390625 396.421875 69.445312 395.445312 69.445312 L 343.804688 69.445312 C 342.828125 69.445312 341.871094 69.390625 340.9375 69.28125 L 340.9375 98.148438 C 340.9375 100.6875 340.273438 103.171875 339 105.359375 L 325.230469 129.097656 C 321.421875 135.660156 319.421875 143.109375 319.421875 150.6875 L 319.421875 237.984375 C 319.421875 249.875 329.050781 259.5 340.9375 259.5 L 398.3125 259.5 C 410.199219 259.5 419.828125 249.875 419.828125 237.984375 L 419.828125 148.757812 C 419.828125 142.4375 418.160156 136.234375 414.988281 130.765625 L 400.25 105.359375 C 398.976562 103.171875 398.3125 100.6875 398.3125 98.152344 Z M 335.683594 60.226562 C 334.464844 58.578125 333.765625 56.660156 333.765625 54.617188 L 333.765625 48.414062 C 333.765625 42.207031 340.183594 37.171875 348.109375 37.171875 L 391.140625 37.171875 C 399.066406 37.171875 405.484375 42.207031 405.484375 48.414062 L 405.484375 54.617188 C 405.484375 56.660156 404.785156 58.578125 403.566406 60.226562 C 401.28125 61.527344 398.445312 62.273438 395.445312 62.273438 L 343.804688 62.273438 C 340.804688 62.273438 337.96875 61.527344 335.683594 60.226562 Z M 335.683594 60.226562 "/></g><g clip-rule="nonzero" clip-path="url(#120666d32f)"><path style=" stroke:none;fill-rule:evenodd;fill:#ffffff;fill-opacity:1;" d="M 541.710938 69.28125 C 540.777344 69.390625 539.820312 69.445312 538.839844 69.445312 L 487.203125 69.445312 C 486.226562 69.445312 485.269531 69.390625 484.335938 69.28125 L 484.335938 98.148438 C 484.335938 100.6875 483.671875 103.171875 482.398438 105.359375 L 468.628906 129.097656 C 464.820312 135.660156 462.820312 143.109375 462.820312 150.6875 L 462.820312 237.984375 C 462.820312 249.875 472.449219 259.5 484.335938 259.5 L 541.710938 259.5 C 553.597656 259.5 563.226562 249.875 563.226562 237.984375 L 563.226562 148.757812 C 563.226562 142.4375 561.558594 136.234375 558.386719 130.765625 L 543.648438 105.359375 C 542.375 103.171875 541.710938 100.6875 541.710938 98.152344 Z M 479.082031 60.226562 C 477.863281 58.578125 477.164062 56.660156 477.164062 54.617188 L 477.164062 48.414062 C 477.164062 42.207031 483.582031 37.171875 491.507812 37.171875 L 534.539062 37.171875 C 542.464844 37.171875 548.882812 42.207031 548.882812 48.414062 L 548.882812 54.617188 C 548.882812 56.660156 548.183594 58.578125 546.964844 60.226562 C 544.675781 61.527344 541.84375 62.273438 538.839844 62.273438 L 487.203125 62.273438 C 484.199219 62.273438 481.367188 61.527344 479.082031 60.226562 Z M 479.082031 60.226562 "/></g><g clip-rule="nonzero" clip-path="url(#6bc87213bf)"><path style=" stroke:none;fill-rule:evenodd;fill:#dc2626;fill-opacity:1;" d="M 108.414062 85.039062 C 107.613281 85.128906 106.789062 85.175781 105.949219 85.175781 L 61.566406 85.175781 C 60.726562 85.175781 59.902344 85.128906 59.101562 85.039062 L 59.101562 109.847656 C 59.101562 112.027344 58.53125 114.164062 57.4375 116.042969 L 45.601562 136.445312 C 42.328125 142.085938 40.609375 148.488281 40.609375 155 L 40.609375 230.035156 C 40.609375 240.25 48.882812 248.527344 59.101562 248.527344 L 108.414062 248.527344 C 118.628906 248.527344 126.90625 240.25 126.90625 230.035156 L 126.90625 153.34375 C 126.90625 147.914062 125.472656 142.582031 122.746094 137.878906 L 110.078125 116.046875 C 108.984375 114.164062 108.414062 112.03125 108.414062 109.851562 Z M 54.585938 77.253906 C 53.539062 75.835938 52.9375 74.1875 52.9375 72.433594 L 52.9375 67.101562 C 52.9375 61.769531 58.453125 57.4375 65.265625 57.4375 L 102.25 57.4375 C 109.058594 57.4375 114.578125 61.769531 114.578125 67.101562 L 114.578125 72.433594 C 114.578125 74.1875 113.976562 75.835938 112.929688 77.253906 C 110.964844 78.371094 108.527344 79.011719 105.945312 79.011719 L 61.566406 79.011719 C 58.984375 79.011719 56.550781 78.371094 54.585938 77.253906 Z M 54.585938 77.253906 "/></g><g clip-rule="nonzero" clip-path="url(#4bd928fff8)"><path style=" stroke:none;fill-rule:evenodd;fill:#dc2626;fill-opacity:1;" d="M 251.601562 85.039062 C 250.800781 85.128906 249.976562 85.175781 249.136719 85.175781 L 204.757812 85.175781 C 203.917969 85.175781 203.09375 85.128906 202.289062 85.039062 L 202.289062 109.847656 C 202.289062 112.027344 201.722656 114.164062 200.625 116.042969 L 188.792969 136.445312 C 185.515625 142.085938 183.796875 148.488281 183.796875 155 L 183.796875 230.035156 C 183.796875 240.25 192.074219 248.527344 202.289062 248.527344 L 251.601562 248.527344 C 261.820312 248.527344 270.09375 240.25 270.09375 230.035156 L 270.09375 153.34375 C 270.09375 147.914062 268.664062 142.582031 265.933594 137.878906 L 253.269531 116.046875 C 252.171875 114.164062 251.605469 112.03125 251.605469 109.851562 Z M 197.777344 77.253906 C 196.726562 75.835938 196.125 74.1875 196.125 72.433594 L 196.125 67.101562 C 196.125 61.769531 201.644531 57.4375 208.453125 57.4375 L 245.4375 57.4375 C 252.25 57.4375 257.765625 61.769531 257.765625 67.101562 L 257.765625 72.433594 C 257.765625 74.1875 257.167969 75.835938 256.117188 77.253906 C 254.152344 78.371094 251.71875 79.011719 249.136719 79.011719 L 204.757812 79.011719 C 202.175781 79.011719 199.742188 78.371094 197.777344 77.253906 Z M 197.777344 77.253906 "/></g><g clip-rule="nonzero" clip-path="url(#b7be2ce9de)"><path style=" stroke:none;fill-rule:evenodd;fill:#dc2626;fill-opacity:1;" d="M 394.097656 85.039062 C 393.292969 85.128906 392.46875 85.175781 391.628906 85.175781 L 347.25 85.175781 C 346.410156 85.175781 345.585938 85.128906 344.785156 85.039062 L 344.785156 109.847656 C 344.785156 112.027344 344.214844 114.164062 343.121094 116.042969 L 331.285156 136.445312 C 328.007812 142.085938 326.292969 148.488281 326.292969 155 L 326.292969 230.035156 C 326.292969 240.25 334.566406 248.527344 344.785156 248.527344 L 394.097656 248.527344 C 404.3125 248.527344 412.589844 240.25 412.589844 230.035156 L 412.589844 153.34375 C 412.589844 147.914062 411.15625 142.582031 408.425781 137.878906 L 395.761719 116.046875 C 394.667969 114.164062 394.097656 112.03125 394.097656 109.851562 Z M 340.269531 77.253906 C 339.21875 75.835938 338.621094 74.1875 338.621094 72.433594 L 338.621094 67.101562 C 338.621094 61.769531 344.136719 57.4375 350.949219 57.4375 L 387.933594 57.4375 C 394.742188 57.4375 400.261719 61.769531 400.261719 67.101562 L 400.261719 72.433594 C 400.261719 74.1875 399.660156 75.835938 398.609375 77.253906 C 396.644531 78.371094 394.210938 79.011719 391.628906 79.011719 L 347.25 79.011719 C 344.667969 79.011719 342.234375 78.371094 340.269531 77.253906 Z M 340.269531 77.253906 "/></g><g clip-rule="nonzero" clip-path="url(#39867cc8d7)"><path style=" stroke:none;fill-rule:evenodd;fill:#dc2626;fill-opacity:1;" d="M 537.492188 85.039062 C 536.691406 85.128906 535.867188 85.175781 535.027344 85.175781 L 490.648438 85.175781 C 489.808594 85.175781 488.984375 85.128906 488.179688 85.039062 L 488.179688 109.847656 C 488.179688 112.027344 487.609375 114.164062 486.515625 116.042969 L 474.683594 136.445312 C 471.40625 142.085938 469.6875 148.488281 469.6875 155 L 469.6875 230.035156 C 469.6875 240.25 477.964844 248.527344 488.179688 248.527344 L 537.492188 248.527344 C 547.710938 248.527344 555.984375 240.25 555.984375 230.035156 L 555.984375 153.34375 C 555.984375 147.914062 554.554688 142.582031 551.824219 137.878906 L 539.160156 116.046875 C 538.0625 114.164062 537.492188 112.03125 537.492188 109.851562 Z M 483.664062 77.253906 C 482.617188 75.835938 482.015625 74.1875 482.015625 72.433594 L 482.015625 67.101562 C 482.015625 61.769531 487.535156 57.4375 494.34375 57.4375 L 531.328125 57.4375 C 538.140625 57.4375 543.65625 61.769531 543.65625 67.101562 L 543.65625 72.433594 C 543.65625 74.1875 543.058594 75.835938 542.007812 77.253906 C 540.042969 78.371094 537.609375 79.011719 535.027344 79.011719 L 490.648438 79.011719 C 488.066406 79.011719 485.628906 78.371094 483.664062 77.253906 Z M 483.664062 77.253906 "/></g></g></svg>