<svg xmlns="http://www.w3.org/2000/svg" xmlns:xlink="http://www.w3.org/1999/xlink" width="800" zoomAndPan="magnify" viewBox="0 0 600 299.999988" height="400" preserveAspectRatio="xMidYMid meet" version="1.2"><defs><clipPath id="219bcbdd37"><path d="M 47 50 L 140 50 L 140 256.070312 L 47 256.070312 Z M 47 50 "/></clipPath><clipPath id="92761d0bc1"><path d="M 179 50 L 273 50 L 273 256.070312 L 179 256.070312 Z M 179 50 "/></clipPath><clipPath id="ad6e5269fe"><path d="M 311 50 L 405 50 L 405 256.070312 L 311 256.070312 Z M 311 50 "/></clipPath><clipPath id="49c745f355"><path d="M 447 50 L 541 50 L 541 256.070312 L 447 256.070312 Z M 447 50 "/></clipPath><clipPath id="9fc8f041c4"><path d="M 73 64 L 167 64 L 167 269.890625 L 73 269.890625 Z M 73 64 "/></clipPath><clipPath id="9542ed97fe"><path d="M 205 64 L 299 64 L 299 269.890625 L 205 269.890625 Z M 205 64 "/></clipPath><clipPath id="0a0d12e769"><path d="M 341 64 L 435 64 L 435 269.890625 L 341 269.890625 Z M 341 64 "/></clipPath><clipPath id="c6110dcaf3"><path d="M 473 64 L 567 64 L 567 269.890625 L 473 269.890625 Z M 473 64 "/></clipPath></defs><g id="d2ac2e43e5"><g clip-rule="nonzero" clip-path="url(#219bcbdd37)"><path style=" stroke:none;fill-rule:evenodd;fill:#ffffff;fill-opacity:1;" d="M 119.988281 80.148438 C 119.128906 80.25 118.238281 80.300781 117.335938 80.300781 L 69.582031 80.300781 C 68.675781 80.300781 67.789062 80.25 66.925781 80.148438 L 66.925781 106.847656 C 66.925781 109.195312 66.3125 111.488281 65.136719 113.511719 L 52.402344 135.46875 C 48.878906 141.539062 47.027344 148.425781 47.027344 155.433594 L 47.027344 236.171875 C 47.027344 247.167969 55.933594 256.070312 66.925781 256.070312 L 119.988281 256.070312 C 130.984375 256.070312 139.886719 247.167969 139.886719 236.171875 L 139.886719 153.652344 C 139.886719 147.804688 138.347656 142.070312 135.410156 137.011719 L 121.78125 113.515625 C 120.601562 111.492188 119.988281 109.195312 119.988281 106.847656 Z M 62.066406 71.777344 C 60.941406 70.25 60.292969 68.476562 60.292969 66.585938 L 60.292969 60.847656 C 60.292969 55.109375 66.230469 50.449219 73.558594 50.449219 L 113.355469 50.449219 C 120.6875 50.449219 126.621094 55.109375 126.621094 60.847656 L 126.621094 66.585938 C 126.621094 68.476562 125.976562 70.25 124.847656 71.777344 C 122.734375 72.976562 120.113281 73.667969 117.335938 73.667969 L 69.578125 73.667969 C 66.800781 73.667969 64.183594 72.976562 62.066406 71.777344 Z M 62.066406 71.777344 "/></g><g clip-rule="nonzero" clip-path="url(#92761d0bc1)"><path style=" stroke:none;fill-rule:evenodd;fill:#ffffff;fill-opacity:1;" d="M 252.589844 80.148438 C 251.730469 80.25 250.839844 80.300781 249.9375 80.300781 L 202.179688 80.300781 C 201.277344 80.300781 200.390625 80.25 199.527344 80.148438 L 199.527344 106.847656 C 199.527344 109.195312 198.914062 111.488281 197.738281 113.511719 L 185.003906 135.46875 C 181.480469 141.539062 179.628906 148.425781 179.628906 155.433594 L 179.628906 236.171875 C 179.628906 247.167969 188.535156 256.070312 199.527344 256.070312 L 252.589844 256.070312 C 263.585938 256.070312 272.488281 247.167969 272.488281 236.171875 L 272.488281 153.652344 C 272.488281 147.804688 270.945312 142.070312 268.011719 137.011719 L 254.382812 113.515625 C 253.203125 111.492188 252.589844 109.195312 252.589844 106.847656 Z M 194.667969 71.777344 C 193.542969 70.25 192.894531 68.476562 192.894531 66.585938 L 192.894531 60.847656 C 192.894531 55.109375 198.832031 50.449219 206.160156 50.449219 L 245.957031 50.449219 C 253.289062 50.449219 259.222656 55.109375 259.222656 60.847656 L 259.222656 66.585938 C 259.222656 68.476562 258.578125 70.25 257.449219 71.777344 C 255.335938 72.976562 252.714844 73.667969 249.9375 73.667969 L 202.179688 73.667969 C 199.402344 73.667969 196.785156 72.976562 194.667969 71.777344 Z M 194.667969 71.777344 "/></g><g clip-rule="nonzero" clip-path="url(#ad6e5269fe)"><path style=" stroke:none;fill-rule:evenodd;fill:#ffffff;fill-opacity:1;" d="M 384.539062 80.148438 C 383.675781 80.25 382.789062 80.300781 381.886719 80.300781 L 334.128906 80.300781 C 333.226562 80.300781 332.339844 80.25 331.476562 80.148438 L 331.476562 106.847656 C 331.476562 109.195312 330.863281 111.488281 329.6875 113.511719 L 316.953125 135.46875 C 313.425781 141.539062 311.578125 148.425781 311.578125 155.433594 L 311.578125 236.171875 C 311.578125 247.167969 320.484375 256.070312 331.476562 256.070312 L 384.539062 256.070312 C 395.535156 256.070312 404.4375 247.167969 404.4375 236.171875 L 404.4375 153.652344 C 404.4375 147.804688 402.894531 142.070312 399.960938 137.011719 L 386.332031 113.515625 C 385.152344 111.492188 384.539062 109.195312 384.539062 106.847656 Z M 326.617188 71.777344 C 325.492188 70.25 324.84375 68.476562 324.84375 66.585938 L 324.84375 60.847656 C 324.84375 55.109375 330.78125 50.449219 338.109375 50.449219 L 377.90625 50.449219 C 385.234375 50.449219 391.171875 55.109375 391.171875 60.847656 L 391.171875 66.585938 C 391.171875 68.476562 390.527344 70.25 389.398438 71.777344 C 387.285156 72.976562 384.664062 73.667969 381.886719 73.667969 L 334.128906 73.667969 C 331.351562 73.667969 328.734375 72.976562 326.617188 71.777344 Z M 326.617188 71.777344 "/></g><g clip-rule="nonzero" clip-path="url(#49c745f355)"><path style=" stroke:none;fill-rule:evenodd;fill:#ffffff;fill-opacity:1;" d="M 520.296875 80.148438 C 519.433594 80.25 518.546875 80.300781 517.640625 80.300781 L 469.886719 80.300781 C 468.980469 80.300781 468.09375 80.25 467.234375 80.148438 L 467.234375 106.847656 C 467.234375 109.195312 466.621094 111.488281 465.441406 113.511719 L 452.707031 135.46875 C 449.183594 141.539062 447.335938 148.425781 447.335938 155.433594 L 447.335938 236.171875 C 447.335938 247.167969 456.238281 256.070312 467.234375 256.070312 L 520.296875 256.070312 C 531.289062 256.070312 540.195312 247.167969 540.195312 236.171875 L 540.195312 153.652344 C 540.195312 147.804688 538.652344 142.070312 535.714844 137.011719 L 522.085938 113.515625 C 520.910156 111.492188 520.296875 109.195312 520.296875 106.847656 Z M 462.375 71.777344 C 461.246094 70.25 460.601562 68.476562 460.601562 66.585938 L 460.601562 60.847656 C 460.601562 55.109375 466.535156 50.449219 473.867188 50.449219 L 513.664062 50.449219 C 520.992188 50.449219 526.929688 55.109375 526.929688 60.847656 L 526.929688 66.585938 C 526.929688 68.476562 526.28125 70.25 525.152344 71.777344 C 523.039062 72.976562 520.417969 73.667969 517.640625 73.667969 L 469.886719 73.667969 C 467.109375 73.667969 464.488281 72.976562 462.375 71.777344 Z M 462.375 71.777344 "/></g><g clip-rule="nonzero" clip-path="url(#9fc8f041c4)"><path style=" stroke:none;fill-rule:evenodd;fill:#dc2626;fill-opacity:1;" d="M 146.410156 93.96875 C 145.546875 94.070312 144.660156 94.117188 143.757812 94.117188 L 96 94.117188 C 95.097656 94.117188 94.210938 94.070312 93.347656 93.96875 L 93.347656 120.667969 C 93.347656 123.011719 92.734375 125.308594 91.558594 127.332031 L 78.820312 149.289062 C 75.296875 155.355469 73.449219 162.246094 73.449219 169.253906 L 73.449219 249.992188 C 73.449219 260.984375 82.355469 269.890625 93.347656 269.890625 L 146.410156 269.890625 C 157.402344 269.890625 166.308594 260.984375 166.308594 249.992188 L 166.308594 167.472656 C 166.308594 161.625 164.765625 155.886719 161.832031 150.832031 L 148.203125 127.335938 C 147.023438 125.3125 146.410156 123.015625 146.410156 120.667969 Z M 88.488281 85.59375 C 87.363281 84.070312 86.714844 82.296875 86.714844 80.40625 L 86.714844 74.667969 C 86.714844 68.929688 92.652344 64.269531 99.980469 64.269531 L 139.777344 64.269531 C 147.105469 64.269531 153.042969 68.929688 153.042969 74.667969 L 153.042969 80.40625 C 153.042969 82.296875 152.394531 84.070312 151.269531 85.59375 C 149.15625 86.796875 146.535156 87.484375 143.757812 87.484375 L 96 87.484375 C 93.222656 87.484375 90.601562 86.796875 88.488281 85.59375 Z M 88.488281 85.59375 "/></g><g clip-rule="nonzero" clip-path="url(#9542ed97fe)"><path style=" stroke:none;fill-rule:evenodd;fill:#dc2626;fill-opacity:1;" d="M 278.359375 93.96875 C 277.496094 94.070312 276.609375 94.117188 275.707031 94.117188 L 227.949219 94.117188 C 227.046875 94.117188 226.160156 94.070312 225.296875 93.96875 L 225.296875 120.667969 C 225.296875 123.011719 224.683594 125.308594 223.507812 127.332031 L 210.769531 149.289062 C 207.246094 155.355469 205.398438 162.246094 205.398438 169.253906 L 205.398438 249.992188 C 205.398438 260.984375 214.304688 269.890625 225.296875 269.890625 L 278.359375 269.890625 C 289.351562 269.890625 298.257812 260.984375 298.257812 249.992188 L 298.257812 167.472656 C 298.257812 161.625 296.714844 155.886719 293.78125 150.832031 L 280.148438 127.335938 C 278.972656 125.3125 278.359375 123.015625 278.359375 120.667969 Z M 220.4375 85.59375 C 219.308594 84.070312 218.664062 82.296875 218.664062 80.40625 L 218.664062 74.667969 C 218.664062 68.929688 224.601562 64.269531 231.929688 64.269531 L 271.726562 64.269531 C 279.054688 64.269531 284.992188 68.929688 284.992188 74.667969 L 284.992188 80.40625 C 284.992188 82.296875 284.34375 84.070312 283.21875 85.59375 C 281.105469 86.796875 278.484375 87.484375 275.707031 87.484375 L 227.949219 87.484375 C 225.171875 87.484375 222.550781 86.796875 220.4375 85.59375 Z M 220.4375 85.59375 "/></g><g clip-rule="nonzero" clip-path="url(#0a0d12e769)"><path style=" stroke:none;fill-rule:evenodd;fill:#dc2626;fill-opacity:1;" d="M 414.113281 93.96875 C 413.253906 94.070312 412.367188 94.117188 411.460938 94.117188 L 363.707031 94.117188 C 362.800781 94.117188 361.914062 94.070312 361.050781 93.96875 L 361.050781 120.667969 C 361.050781 123.011719 360.4375 125.308594 359.261719 127.332031 L 346.527344 149.289062 C 343.003906 155.355469 341.152344 162.246094 341.152344 169.253906 L 341.152344 249.992188 C 341.152344 260.984375 350.058594 269.890625 361.050781 269.890625 L 414.113281 269.890625 C 425.109375 269.890625 434.011719 260.984375 434.011719 249.992188 L 434.011719 167.472656 C 434.011719 161.625 432.472656 155.886719 429.535156 150.832031 L 415.90625 127.335938 C 414.726562 125.3125 414.113281 123.015625 414.113281 120.667969 Z M 356.195312 85.59375 C 355.066406 84.070312 354.417969 82.296875 354.417969 80.40625 L 354.417969 74.667969 C 354.417969 68.929688 360.355469 64.269531 367.683594 64.269531 L 407.480469 64.269531 C 414.8125 64.269531 420.746094 68.929688 420.746094 74.667969 L 420.746094 80.40625 C 420.746094 82.296875 420.101562 84.070312 418.972656 85.59375 C 416.859375 86.796875 414.238281 87.484375 411.460938 87.484375 L 363.707031 87.484375 C 360.929688 87.484375 358.308594 86.796875 356.195312 85.59375 Z M 356.195312 85.59375 "/></g><g clip-rule="nonzero" clip-path="url(#c6110dcaf3)"><path style=" stroke:none;fill-rule:evenodd;fill:#dc2626;fill-opacity:1;" d="M 546.855469 93.96875 C 545.992188 94.070312 545.105469 94.117188 544.203125 94.117188 L 496.445312 94.117188 C 495.542969 94.117188 494.65625 94.070312 493.792969 93.96875 L 493.792969 120.667969 C 493.792969 123.011719 493.179688 125.308594 492.003906 127.332031 L 479.269531 149.289062 C 475.742188 155.355469 473.894531 162.246094 473.894531 169.253906 L 473.894531 249.992188 C 473.894531 260.984375 482.800781 269.890625 493.792969 269.890625 L 546.855469 269.890625 C 557.851562 269.890625 566.753906 260.984375 566.753906 249.992188 L 566.753906 167.472656 C 566.753906 161.625 565.210938 155.886719 562.277344 150.832031 L 548.648438 127.335938 C 547.46875 125.3125 546.855469 123.015625 546.855469 120.667969 Z M 488.933594 85.59375 C 487.808594 84.070312 487.160156 82.296875 487.160156 80.40625 L 487.160156 74.667969 C 487.160156 68.929688 493.097656 64.269531 500.425781 64.269531 L 540.222656 64.269531 C 547.550781 64.269531 553.488281 68.929688 553.488281 74.667969 L 553.488281 80.40625 C 553.488281 82.296875 552.84375 84.070312 551.714844 85.59375 C 549.601562 86.796875 546.980469 87.484375 544.203125 87.484375 L 496.445312 87.484375 C 493.667969 87.484375 491.050781 86.796875 488.933594 85.59375 Z M 488.933594 85.59375 "/></g></g></svg>