<svg xmlns="http://www.w3.org/2000/svg" xmlns:xlink="http://www.w3.org/1999/xlink" width="800" zoomAndPan="magnify" viewBox="0 0 600 299.999988" height="400" preserveAspectRatio="xMidYMid meet" version="1.2"><defs><clipPath id="209cab934e"><path d="M 47 50 L 140 50 L 140 256.070312 L 47 256.070312 Z M 47 50 "/></clipPath><clipPath id="45a7de9209"><path d="M 179 50 L 273 50 L 273 256.070312 L 179 256.070312 Z M 179 50 "/></clipPath><clipPath id="1eca74c253"><path d="M 311 50 L 405 50 L 405 256.070312 L 311 256.070312 Z M 311 50 "/></clipPath><clipPath id="4047fae132"><path d="M 447 50 L 541 50 L 541 256.070312 L 447 256.070312 Z M 447 50 "/></clipPath><clipPath id="eadd910ff5"><path d="M 26 64 L 120 64 L 120 269.890625 L 26 269.890625 Z M 26 64 "/></clipPath><clipPath id="0459ecbe10"><path d="M 153 64 L 247 64 L 247 269.890625 L 153 269.890625 Z M 153 64 "/></clipPath><clipPath id="98db9394ad"><path d="M 285 64 L 379 64 L 379 269.890625 L 285 269.890625 Z M 285 64 "/></clipPath><clipPath id="4a9794bf11"><path d="M 417 64 L 511 64 L 511 269.890625 L 417 269.890625 Z M 417 64 "/></clipPath></defs><g id="2db6798264"><g clip-rule="nonzero" clip-path="url(#209cab934e)"><path style=" stroke:none;fill-rule:evenodd;fill:#ffffff;fill-opacity:1;" d="M 119.988281 80.148438 C 119.128906 80.25 118.238281 80.300781 117.335938 80.300781 L 69.582031 80.300781 C 68.675781 80.300781 67.789062 80.25 66.925781 80.148438 L 66.925781 106.847656 C 66.925781 109.195312 66.3125 111.488281 65.136719 113.511719 L 52.402344 135.46875 C 48.878906 141.539062 47.027344 148.425781 47.027344 155.433594 L 47.027344 236.171875 C 47.027344 247.167969 55.933594 256.070312 66.925781 256.070312 L 119.988281 256.070312 C 130.984375 256.070312 139.886719 247.167969 139.886719 236.171875 L 139.886719 153.652344 C 139.886719 147.804688 138.347656 142.070312 135.410156 137.011719 L 121.78125 113.515625 C 120.601562 111.492188 119.988281 109.195312 119.988281 106.847656 Z M 62.066406 71.777344 C 60.941406 70.25 60.292969 68.476562 60.292969 66.585938 L 60.292969 60.847656 C 60.292969 55.109375 66.230469 50.449219 73.558594 50.449219 L 113.355469 50.449219 C 120.6875 50.449219 126.621094 55.109375 126.621094 60.847656 L 126.621094 66.585938 C 126.621094 68.476562 125.976562 70.25 124.847656 71.777344 C 122.734375 72.976562 120.113281 73.667969 117.335938 73.667969 L 69.578125 73.667969 C 66.800781 73.667969 64.183594 72.976562 62.066406 71.777344 Z M 62.066406 71.777344 "/></g><g clip-rule="nonzero" clip-path="url(#45a7de9209)"><path style=" stroke:none;fill-rule:evenodd;fill:#ffffff;fill-opacity:1;" d="M 252.589844 80.148438 C 251.730469 80.25 250.839844 80.300781 249.9375 80.300781 L 202.179688 80.300781 C 201.277344 80.300781 200.390625 80.25 199.527344 80.148438 L 199.527344 106.847656 C 199.527344 109.195312 198.914062 111.488281 197.738281 113.511719 L 185.003906 135.46875 C 181.480469 141.539062 179.628906 148.425781 179.628906 155.433594 L 179.628906 236.171875 C 179.628906 247.167969 188.535156 256.070312 199.527344 256.070312 L 252.589844 256.070312 C 263.585938 256.070312 272.488281 247.167969 272.488281 236.171875 L 272.488281 153.652344 C 272.488281 147.804688 270.945312 142.070312 268.011719 137.011719 L 254.382812 113.515625 C 253.203125 111.492188 252.589844 109.195312 252.589844 106.847656 Z M 194.667969 71.777344 C 193.542969 70.25 192.894531 68.476562 192.894531 66.585938 L 192.894531 60.847656 C 192.894531 55.109375 198.832031 50.449219 206.160156 50.449219 L 245.957031 50.449219 C 253.289062 50.449219 259.222656 55.109375 259.222656 60.847656 L 259.222656 66.585938 C 259.222656 68.476562 258.578125 70.25 257.449219 71.777344 C 255.335938 72.976562 252.714844 73.667969 249.9375 73.667969 L 202.179688 73.667969 C 199.402344 73.667969 196.785156 72.976562 194.667969 71.777344 Z M 194.667969 71.777344 "/></g><g clip-rule="nonzero" clip-path="url(#1eca74c253)"><path style=" stroke:none;fill-rule:evenodd;fill:#ffffff;fill-opacity:1;" d="M 384.539062 80.148438 C 383.675781 80.25 382.789062 80.300781 381.886719 80.300781 L 334.128906 80.300781 C 333.226562 80.300781 332.339844 80.25 331.476562 80.148438 L 331.476562 106.847656 C 331.476562 109.195312 330.863281 111.488281 329.6875 113.511719 L 316.953125 135.46875 C 313.425781 141.539062 311.578125 148.425781 311.578125 155.433594 L 311.578125 236.171875 C 311.578125 247.167969 320.484375 256.070312 331.476562 256.070312 L 384.539062 256.070312 C 395.535156 256.070312 404.4375 247.167969 404.4375 236.171875 L 404.4375 153.652344 C 404.4375 147.804688 402.894531 142.070312 399.960938 137.011719 L 386.332031 113.515625 C 385.152344 111.492188 384.539062 109.195312 384.539062 106.847656 Z M 326.617188 71.777344 C 325.492188 70.25 324.84375 68.476562 324.84375 66.585938 L 324.84375 60.847656 C 324.84375 55.109375 330.78125 50.449219 338.109375 50.449219 L 377.90625 50.449219 C 385.234375 50.449219 391.171875 55.109375 391.171875 60.847656 L 391.171875 66.585938 C 391.171875 68.476562 390.527344 70.25 389.398438 71.777344 C 387.285156 72.976562 384.664062 73.667969 381.886719 73.667969 L 334.128906 73.667969 C 331.351562 73.667969 328.734375 72.976562 326.617188 71.777344 Z M 326.617188 71.777344 "/></g><g clip-rule="nonzero" clip-path="url(#4047fae132)"><path style=" stroke:none;fill-rule:evenodd;fill:#ffffff;fill-opacity:1;" d="M 520.296875 80.148438 C 519.433594 80.25 518.546875 80.300781 517.640625 80.300781 L 469.886719 80.300781 C 468.980469 80.300781 468.09375 80.25 467.234375 80.148438 L 467.234375 106.847656 C 467.234375 109.195312 466.621094 111.488281 465.441406 113.511719 L 452.707031 135.46875 C 449.183594 141.539062 447.335938 148.425781 447.335938 155.433594 L 447.335938 236.171875 C 447.335938 247.167969 456.238281 256.070312 467.234375 256.070312 L 520.296875 256.070312 C 531.289062 256.070312 540.195312 247.167969 540.195312 236.171875 L 540.195312 153.652344 C 540.195312 147.804688 538.652344 142.070312 535.714844 137.011719 L 522.085938 113.515625 C 520.910156 111.492188 520.296875 109.195312 520.296875 106.847656 Z M 462.375 71.777344 C 461.246094 70.25 460.601562 68.476562 460.601562 66.585938 L 460.601562 60.847656 C 460.601562 55.109375 466.535156 50.449219 473.867188 50.449219 L 513.664062 50.449219 C 520.992188 50.449219 526.929688 55.109375 526.929688 60.847656 L 526.929688 66.585938 C 526.929688 68.476562 526.28125 70.25 525.152344 71.777344 C 523.039062 72.976562 520.417969 73.667969 517.640625 73.667969 L 469.886719 73.667969 C 467.109375 73.667969 464.488281 72.976562 462.375 71.777344 Z M 462.375 71.777344 "/></g><g clip-rule="nonzero" clip-path="url(#eadd910ff5)"><path style=" stroke:none;fill-rule:evenodd;fill:#dc2626;fill-opacity:1;" d="M 99.488281 93.96875 C 98.625 94.070312 97.738281 94.117188 96.832031 94.117188 L 49.078125 94.117188 C 48.171875 94.117188 47.285156 94.070312 46.425781 93.96875 L 46.425781 120.667969 C 46.425781 123.011719 45.8125 125.308594 44.632812 127.332031 L 31.898438 149.289062 C 28.375 155.355469 26.527344 162.246094 26.527344 169.253906 L 26.527344 249.992188 C 26.527344 260.984375 35.429688 269.890625 46.425781 269.890625 L 99.488281 269.890625 C 110.480469 269.890625 119.386719 260.984375 119.386719 249.992188 L 119.386719 167.472656 C 119.386719 161.625 117.84375 155.886719 114.90625 150.832031 L 101.277344 127.335938 C 100.101562 125.3125 99.488281 123.015625 99.488281 120.667969 Z M 41.566406 85.59375 C 40.4375 84.070312 39.792969 82.296875 39.792969 80.40625 L 39.792969 74.667969 C 39.792969 68.929688 45.726562 64.269531 53.058594 64.269531 L 92.855469 64.269531 C 100.183594 64.269531 106.121094 68.929688 106.121094 74.667969 L 106.121094 80.40625 C 106.121094 82.296875 105.472656 84.070312 104.34375 85.59375 C 102.230469 86.796875 99.609375 87.484375 96.832031 87.484375 L 49.078125 87.484375 C 46.300781 87.484375 43.679688 86.796875 41.566406 85.59375 Z M 41.566406 85.59375 "/></g><g clip-rule="nonzero" clip-path="url(#0459ecbe10)"><path style=" stroke:none;fill-rule:evenodd;fill:#dc2626;fill-opacity:1;" d="M 226.175781 93.96875 C 225.3125 94.070312 224.425781 94.117188 223.523438 94.117188 L 175.765625 94.117188 C 174.863281 94.117188 173.976562 94.070312 173.113281 93.96875 L 173.113281 120.667969 C 173.113281 123.011719 172.5 125.308594 171.324219 127.332031 L 158.585938 149.289062 C 155.0625 155.355469 153.214844 162.246094 153.214844 169.253906 L 153.214844 249.992188 C 153.214844 260.984375 162.121094 269.890625 173.113281 269.890625 L 226.175781 269.890625 C 237.167969 269.890625 246.074219 260.984375 246.074219 249.992188 L 246.074219 167.472656 C 246.074219 161.625 244.53125 155.886719 241.597656 150.832031 L 227.96875 127.335938 C 226.789062 125.3125 226.175781 123.015625 226.175781 120.667969 Z M 168.253906 85.59375 C 167.128906 84.070312 166.480469 82.296875 166.480469 80.40625 L 166.480469 74.667969 C 166.480469 68.929688 172.417969 64.269531 179.746094 64.269531 L 219.542969 64.269531 C 226.871094 64.269531 232.808594 68.929688 232.808594 74.667969 L 232.808594 80.40625 C 232.808594 82.296875 232.160156 84.070312 231.035156 85.59375 C 228.921875 86.796875 226.300781 87.484375 223.523438 87.484375 L 175.765625 87.484375 C 172.988281 87.484375 170.367188 86.796875 168.253906 85.59375 Z M 168.253906 85.59375 "/></g><g clip-rule="nonzero" clip-path="url(#98db9394ad)"><path style=" stroke:none;fill-rule:evenodd;fill:#dc2626;fill-opacity:1;" d="M 358.769531 93.96875 C 357.910156 94.070312 357.023438 94.117188 356.117188 94.117188 L 308.363281 94.117188 C 307.457031 94.117188 306.570312 94.070312 305.707031 93.96875 L 305.707031 120.667969 C 305.707031 123.011719 305.09375 125.308594 303.917969 127.332031 L 291.183594 149.289062 C 287.660156 155.355469 285.808594 162.246094 285.808594 169.253906 L 285.808594 249.992188 C 285.808594 260.984375 294.714844 269.890625 305.707031 269.890625 L 358.769531 269.890625 C 369.765625 269.890625 378.667969 260.984375 378.667969 249.992188 L 378.667969 167.472656 C 378.667969 161.625 377.128906 155.886719 374.191406 150.832031 L 360.5625 127.335938 C 359.386719 125.3125 358.769531 123.015625 358.769531 120.667969 Z M 300.851562 85.59375 C 299.722656 84.070312 299.074219 82.296875 299.074219 80.40625 L 299.074219 74.667969 C 299.074219 68.929688 305.011719 64.269531 312.339844 64.269531 L 352.136719 64.269531 C 359.46875 64.269531 365.402344 68.929688 365.402344 74.667969 L 365.402344 80.40625 C 365.402344 82.296875 364.757812 84.070312 363.628906 85.59375 C 361.515625 86.796875 358.894531 87.484375 356.117188 87.484375 L 308.363281 87.484375 C 305.585938 87.484375 302.964844 86.796875 300.851562 85.59375 Z M 300.851562 85.59375 "/></g><g clip-rule="nonzero" clip-path="url(#4a9794bf11)"><path style=" stroke:none;fill-rule:evenodd;fill:#dc2626;fill-opacity:1;" d="M 490.71875 93.96875 C 489.859375 94.070312 488.972656 94.117188 488.066406 94.117188 L 440.3125 94.117188 C 439.40625 94.117188 438.519531 94.070312 437.65625 93.96875 L 437.65625 120.667969 C 437.65625 123.011719 437.042969 125.308594 435.867188 127.332031 L 423.132812 149.289062 C 419.609375 155.355469 417.757812 162.246094 417.757812 169.253906 L 417.757812 249.992188 C 417.757812 260.984375 426.664062 269.890625 437.65625 269.890625 L 490.71875 269.890625 C 501.714844 269.890625 510.617188 260.984375 510.617188 249.992188 L 510.617188 167.472656 C 510.617188 161.625 509.078125 155.886719 506.140625 150.832031 L 492.511719 127.335938 C 491.332031 125.3125 490.71875 123.015625 490.71875 120.667969 Z M 432.800781 85.59375 C 431.671875 84.070312 431.023438 82.296875 431.023438 80.40625 L 431.023438 74.667969 C 431.023438 68.929688 436.960938 64.269531 444.289062 64.269531 L 484.085938 64.269531 C 491.417969 64.269531 497.351562 68.929688 497.351562 74.667969 L 497.351562 80.40625 C 497.351562 82.296875 496.707031 84.070312 495.578125 85.59375 C 493.464844 86.796875 490.84375 87.484375 488.066406 87.484375 L 440.3125 87.484375 C 437.535156 87.484375 434.914062 86.796875 432.800781 85.59375 Z M 432.800781 85.59375 "/></g></g></svg>