<svg xmlns="http://www.w3.org/2000/svg" xmlns:xlink="http://www.w3.org/1999/xlink" width="800" zoomAndPan="magnify" viewBox="0 0 600 299.999988" height="400" preserveAspectRatio="xMidYMid meet" version="1.2"><defs><clipPath id="65202f9bcd"><path d="M 37 50 L 131 50 L 131 256.070312 L 37 256.070312 Z M 37 50 "/></clipPath><clipPath id="f1fe06e414"><path d="M 179 50 L 273 50 L 273 256.070312 L 179 256.070312 Z M 179 50 "/></clipPath><clipPath id="8c737f148d"><path d="M 328 50 L 422 50 L 422 256.070312 L 328 256.070312 Z M 328 50 "/></clipPath><clipPath id="e9ee2310d7"><path d="M 465 50 L 559 50 L 559 256.070312 L 465 256.070312 Z M 465 50 "/></clipPath></defs><g id="3959a48b11"><g clip-rule="nonzero" clip-path="url(#65202f9bcd)"><path style=" stroke:none;fill-rule:evenodd;fill:#dc2626;fill-opacity:1;" d="M 110.730469 80.148438 C 109.867188 80.25 108.980469 80.300781 108.074219 80.300781 L 60.320312 80.300781 C 59.414062 80.300781 58.527344 80.25 57.667969 80.148438 L 57.667969 106.847656 C 57.667969 109.195312 57.054688 111.488281 55.875 113.511719 L 43.140625 135.46875 C 39.617188 141.539062 37.769531 148.425781 37.769531 155.433594 L 37.769531 236.171875 C 37.769531 247.167969 46.671875 256.070312 57.667969 256.070312 L 110.730469 256.070312 C 121.722656 256.070312 130.628906 247.167969 130.628906 236.171875 L 130.628906 153.652344 C 130.628906 147.804688 129.085938 142.070312 126.148438 137.011719 L 112.519531 113.515625 C 111.34375 111.492188 110.730469 109.195312 110.730469 106.847656 Z M 52.808594 71.777344 C 51.679688 70.25 51.035156 68.476562 51.035156 66.585938 L 51.035156 60.847656 C 51.035156 55.109375 56.96875 50.449219 64.300781 50.449219 L 104.097656 50.449219 C 111.425781 50.449219 117.363281 55.109375 117.363281 60.847656 L 117.363281 66.585938 C 117.363281 68.476562 116.714844 70.25 115.585938 71.777344 C 113.472656 72.976562 110.851562 73.667969 108.074219 73.667969 L 60.320312 73.667969 C 57.542969 73.667969 54.921875 72.976562 52.808594 71.777344 Z M 52.808594 71.777344 "/></g><g clip-rule="nonzero" clip-path="url(#f1fe06e414)"><path style=" stroke:none;fill-rule:evenodd;fill:#dc2626;fill-opacity:1;" d="M 252.589844 80.148438 C 251.730469 80.25 250.839844 80.300781 249.9375 80.300781 L 202.179688 80.300781 C 201.277344 80.300781 200.390625 80.25 199.527344 80.148438 L 199.527344 106.847656 C 199.527344 109.195312 198.914062 111.488281 197.738281 113.511719 L 185.003906 135.46875 C 181.480469 141.539062 179.628906 148.425781 179.628906 155.433594 L 179.628906 236.171875 C 179.628906 247.167969 188.535156 256.070312 199.527344 256.070312 L 252.589844 256.070312 C 263.585938 256.070312 272.488281 247.167969 272.488281 236.171875 L 272.488281 153.652344 C 272.488281 147.804688 270.945312 142.070312 268.011719 137.011719 L 254.382812 113.515625 C 253.203125 111.492188 252.589844 109.195312 252.589844 106.847656 Z M 194.667969 71.777344 C 193.542969 70.25 192.894531 68.476562 192.894531 66.585938 L 192.894531 60.847656 C 192.894531 55.109375 198.832031 50.449219 206.160156 50.449219 L 245.957031 50.449219 C 253.289062 50.449219 259.222656 55.109375 259.222656 60.847656 L 259.222656 66.585938 C 259.222656 68.476562 258.578125 70.25 257.449219 71.777344 C 255.335938 72.976562 252.714844 73.667969 249.9375 73.667969 L 202.179688 73.667969 C 199.402344 73.667969 196.785156 72.976562 194.667969 71.777344 Z M 194.667969 71.777344 "/></g><g clip-rule="nonzero" clip-path="url(#8c737f148d)"><path style=" stroke:none;fill-rule:evenodd;fill:#dc2626;fill-opacity:1;" d="M 401.527344 80.148438 C 400.667969 80.25 399.777344 80.300781 398.875 80.300781 L 351.121094 80.300781 C 350.214844 80.300781 349.328125 80.25 348.464844 80.148438 L 348.464844 106.847656 C 348.464844 109.195312 347.851562 111.488281 346.675781 113.511719 L 333.941406 135.46875 C 330.417969 141.539062 328.566406 148.425781 328.566406 155.433594 L 328.566406 236.171875 C 328.566406 247.167969 337.472656 256.070312 348.464844 256.070312 L 401.527344 256.070312 C 412.523438 256.070312 421.425781 247.167969 421.425781 236.171875 L 421.425781 153.652344 C 421.425781 147.804688 419.886719 142.070312 416.949219 137.011719 L 403.320312 113.515625 C 402.140625 111.492188 401.527344 109.195312 401.527344 106.847656 Z M 343.605469 71.777344 C 342.480469 70.25 341.832031 68.476562 341.832031 66.585938 L 341.832031 60.847656 C 341.832031 55.109375 347.769531 50.449219 355.097656 50.449219 L 394.894531 50.449219 C 402.226562 50.449219 408.160156 55.109375 408.160156 60.847656 L 408.160156 66.585938 C 408.160156 68.476562 407.515625 70.25 406.386719 71.777344 C 404.273438 72.976562 401.652344 73.667969 398.875 73.667969 L 351.117188 73.667969 C 348.339844 73.667969 345.722656 72.976562 343.605469 71.777344 Z M 343.605469 71.777344 "/></g><g clip-rule="nonzero" clip-path="url(#e9ee2310d7)"><path style=" stroke:none;fill-rule:evenodd;fill:#dc2626;fill-opacity:1;" d="M 538.828125 80.148438 C 537.964844 80.25 537.078125 80.300781 536.175781 80.300781 L 488.417969 80.300781 C 487.515625 80.300781 486.628906 80.25 485.765625 80.148438 L 485.765625 106.847656 C 485.765625 109.195312 485.152344 111.488281 483.976562 113.511719 L 471.238281 135.46875 C 467.714844 141.539062 465.867188 148.425781 465.867188 155.433594 L 465.867188 236.171875 C 465.867188 247.167969 474.773438 256.070312 485.765625 256.070312 L 538.828125 256.070312 C 549.824219 256.070312 558.726562 247.167969 558.726562 236.171875 L 558.726562 153.652344 C 558.726562 147.804688 557.183594 142.070312 554.25 137.011719 L 540.621094 113.515625 C 539.441406 111.492188 538.828125 109.195312 538.828125 106.847656 Z M 480.90625 71.777344 C 479.78125 70.25 479.132812 68.476562 479.132812 66.585938 L 479.132812 60.847656 C 479.132812 55.109375 485.070312 50.449219 492.398438 50.449219 L 532.195312 50.449219 C 539.523438 50.449219 545.460938 55.109375 545.460938 60.847656 L 545.460938 66.585938 C 545.460938 68.476562 544.816406 70.25 543.6875 71.777344 C 541.574219 72.976562 538.953125 73.667969 536.175781 73.667969 L 488.417969 73.667969 C 485.640625 73.667969 483.023438 72.976562 480.90625 71.777344 Z M 480.90625 71.777344 "/></g></g></svg>