<svg xmlns="http://www.w3.org/2000/svg" xmlns:xlink="http://www.w3.org/1999/xlink" width="300" zoomAndPan="magnify" viewBox="0 0 224.87999 225" height="300" preserveAspectRatio="xMidYMid meet" version="1.2"><defs><clipPath id="27c78e4872"><path d="M 65 12 L 160 12 L 160 219.234375 L 65 219.234375 Z M 65 12 "/></clipPath></defs><g id="1edea6f83d"><g clip-rule="nonzero" clip-path="url(#27c78e4872)"><path style=" stroke:none;fill-rule:evenodd;fill:#ffffff;fill-opacity:1;" d="M 139.0625 42.164062 C 138.191406 42.265625 137.300781 42.316406 136.390625 42.316406 L 88.324219 42.316406 C 87.414062 42.316406 86.519531 42.265625 85.652344 42.164062 L 85.652344 69.039062 C 85.652344 71.398438 85.035156 73.710938 83.847656 75.746094 L 71.03125 97.847656 C 67.484375 103.953125 65.625 110.890625 65.625 117.941406 L 65.625 199.207031 C 65.625 210.273438 74.585938 219.234375 85.652344 219.234375 L 139.0625 219.234375 C 150.125 219.234375 159.089844 210.273438 159.089844 199.207031 L 159.089844 116.148438 C 159.089844 110.265625 157.535156 104.488281 154.582031 99.398438 L 140.863281 75.75 C 139.679688 73.714844 139.0625 71.402344 139.0625 69.039062 Z M 80.761719 33.738281 C 79.625 32.203125 78.976562 30.414062 78.976562 28.511719 L 78.976562 22.738281 C 78.976562 16.964844 84.949219 12.273438 92.328125 12.273438 L 132.382812 12.273438 C 139.761719 12.273438 145.738281 16.964844 145.738281 22.738281 L 145.738281 28.511719 C 145.738281 30.414062 145.085938 32.203125 143.949219 33.738281 C 141.824219 34.945312 139.1875 35.640625 136.390625 35.640625 L 88.320312 35.640625 C 85.527344 35.640625 82.890625 34.945312 80.761719 33.738281 Z M 80.761719 33.738281 "/></g><path style="fill:none;stroke-width:10;stroke-linecap:butt;stroke-linejoin:miter;stroke:#dc2626;stroke-opacity:1;stroke-miterlimit:4;" d="M -0.00148943 5.000712 L 88.488421 5.000712 " transform="matrix(0,0.7496,-0.7496,0,92.307127,153.071429)"/><path style="fill:none;stroke-width:10;stroke-linecap:butt;stroke-linejoin:miter;stroke:#dc2626;stroke-opacity:1;stroke-miterlimit:4;" d="M 0.0020205 4.999505 L 63.634922 4.999505 " transform="matrix(0,0.7496,-0.7496,0,116.185128,171.705517)"/><path style="fill:none;stroke-width:10;stroke-linecap:butt;stroke-linejoin:miter;stroke:#dc2626;stroke-opacity:1;stroke-miterlimit:4;" d="M -0.000198378 4.998442 L 110.730743 4.998442 " transform="matrix(0,0.7496,-0.7496,0,140.563238,136.402492)"/></g></svg>