<svg xmlns="http://www.w3.org/2000/svg" xmlns:xlink="http://www.w3.org/1999/xlink" width="300" zoomAndPan="magnify" viewBox="0 0 224.87999 225" height="300" preserveAspectRatio="xMidYMid meet" version="1.2"><defs><clipPath id="73448a8deb"><path d="M 65 12 L 160 12 L 160 219.234375 L 65 219.234375 Z M 65 12 "/></clipPath><clipPath id="748d456ea3"><path d="M 73 20 L 224.761719 20 L 224.761719 224.9375 L 73 224.9375 Z M 73 20 "/></clipPath><clipPath id="dee9d29735"><path d="M 52 0.0585938 L 224 0.0585938 L 224 164 L 52 164 Z M 52 0.0585938 "/></clipPath><clipPath id="40aaa2e5f2"><path d="M 1 0.0585938 L 174 0.0585938 L 174 164 L 1 164 Z M 1 0.0585938 "/></clipPath><clipPath id="e52d4028e1"><path d="M 0 0.0585938 L 171 0.0585938 L 171 195 L 0 195 Z M 0 0.0585938 "/></clipPath><clipPath id="2ec813e712"><path d="M 56 0.0585938 L 224.761719 0.0585938 L 224.761719 186 L 56 186 Z M 56 0.0585938 "/></clipPath></defs><g id="beb43974e3"><g clip-rule="nonzero" clip-path="url(#73448a8deb)"><path style=" stroke:none;fill-rule:evenodd;fill:#ffffff;fill-opacity:1;" d="M 139.0625 42.164062 C 138.191406 42.265625 137.300781 42.316406 136.390625 42.316406 L 88.324219 42.316406 C 87.414062 42.316406 86.519531 42.265625 85.652344 42.164062 L 85.652344 69.039062 C 85.652344 71.398438 85.035156 73.710938 83.847656 75.746094 L 71.03125 97.847656 C 67.484375 103.953125 65.625 110.890625 65.625 117.941406 L 65.625 199.207031 C 65.625 210.273438 74.585938 219.234375 85.652344 219.234375 L 139.0625 219.234375 C 150.125 219.234375 159.089844 210.273438 159.089844 199.207031 L 159.089844 116.148438 C 159.089844 110.265625 157.535156 104.488281 154.582031 99.398438 L 140.863281 75.75 C 139.679688 73.714844 139.0625 71.402344 139.0625 69.039062 Z M 80.761719 33.738281 C 79.625 32.203125 78.976562 30.414062 78.976562 28.511719 L 78.976562 22.738281 C 78.976562 16.964844 84.949219 12.273438 92.328125 12.273438 L 132.382812 12.273438 C 139.761719 12.273438 145.738281 16.964844 145.738281 22.738281 L 145.738281 28.511719 C 145.738281 30.414062 145.085938 32.203125 143.949219 33.738281 C 141.824219 34.945312 139.1875 35.640625 136.390625 35.640625 L 88.320312 35.640625 C 85.527344 35.640625 82.890625 34.945312 80.761719 33.738281 Z M 80.761719 33.738281 "/></g><g clip-rule="nonzero" clip-path="url(#748d456ea3)"><path style="fill:none;stroke-width:20;stroke-linecap:round;stroke-linejoin:miter;stroke:#dc2626;stroke-opacity:1;stroke-miterlimit:4;" d="M 10.001407 10.000306 L 10.719041 10.000306 C 11.11241 10.000306 11.436674 10.323037 11.436674 10.718642 L 11.436674 144.828885 " transform="matrix(0.734838,0,0,0.750432,149.267778,97.675137)"/></g><g clip-rule="nonzero" clip-path="url(#dee9d29735)"><path style="fill:none;stroke-width:20;stroke-linecap:round;stroke-linejoin:miter;stroke:#dc2626;stroke-opacity:1;stroke-miterlimit:4;" d="M 9.998867 10.000781 L 50.547763 10.002027 " transform="matrix(0.0402907,0.748516,-0.748516,0.0402907,144.26648,39.999465)"/></g><g clip-rule="nonzero" clip-path="url(#40aaa2e5f2)"><path style="fill:none;stroke-width:20;stroke-linecap:round;stroke-linejoin:miter;stroke:#dc2626;stroke-opacity:1;stroke-miterlimit:4;" d="M 10.002759 10.002059 L 50.61706 9.999245 " transform="matrix(-0.0534312,0.747693,-0.747693,-0.0534312,96.450431,40.93824)"/></g><g clip-rule="nonzero" clip-path="url(#e52d4028e1)"><path style="fill:none;stroke-width:20;stroke-linecap:round;stroke-linejoin:miter;stroke:#dc2626;stroke-opacity:1;stroke-miterlimit:4;" d="M 9.997097 10.000232 L 57.063463 9.99777 " transform="matrix(-0.388448,0.640282,-0.640282,-0.388448,95.833197,77.007041)"/></g><path style="fill:none;stroke-width:20;stroke-linecap:round;stroke-linejoin:miter;stroke:#dc2626;stroke-opacity:1;stroke-miterlimit:4;" d="M 10.000653 9.999503 L 134.827655 9.999503 " transform="matrix(0,0.7496,-0.7496,0,74.358908,105.17148)"/><g clip-rule="nonzero" clip-path="url(#2ec813e712)"><path style="fill:none;stroke-width:20;stroke-linecap:round;stroke-linejoin:miter;stroke:#dc2626;stroke-opacity:1;stroke-miterlimit:4;" d="M 10.001995 9.998216 L 43.403271 10.000078 " transform="matrix(-0.427015,-0.609398,0.609398,-0.427015,153.607798,111.782555)"/></g></g></svg>