<?xml version="1.0" encoding="UTF-8"?>
<svg width="1200pt" height="1200pt" version="1.1" viewBox="0 0 1200 1200" xmlns="http://www.w3.org/2000/svg">
 <path d="m275.02 150c-68.812 0-125.02 56.203-125.02 125.02v649.97c0 68.812 56.203 125.02 125.02 125.02h649.97c68.812 0 125.02-56.203 125.02-125.02v-649.97c0-68.812-56.203-125.02-125.02-125.02zm450 99.984h150c41.109 0 75 33.891 75 75v150c0 6.6562-2.6719 12.984-7.3594 17.672s-11.016 7.3594-17.672 7.3594c-13.781 0-24.984-11.203-24.984-25.031v-150c0-14.109-10.875-24.984-24.984-24.984h-150c-13.828 0-25.031-11.203-25.031-24.984 0-13.828 11.203-25.031 25.031-25.031zm-450 450c6.6094 0 12.984 2.6719 17.672 7.3594s7.3125 11.016 7.3125 17.672v150c0 14.109 10.875 24.984 24.984 24.984h150c6.6562 0 12.984 2.625 17.672 7.3125s7.3594 11.062 7.3594 17.672c0 6.6562-2.6719 12.984-7.3594 17.672s-11.016 7.3594-17.672 7.3594h-150c-41.109 0-75-33.891-75-75v-150c0-13.828 11.203-25.031 25.031-25.031z" fill="#fff"/>
</svg>
