<svg xmlns="http://www.w3.org/2000/svg" xmlns:xlink="http://www.w3.org/1999/xlink" width="300" zoomAndPan="magnify" viewBox="0 0 224.87999 225" height="300" preserveAspectRatio="xMidYMid meet" version="1.2"><defs><clipPath id="cedbb51542"><path d="M 65 12 L 160 12 L 160 219.234375 L 65 219.234375 Z M 65 12 "/></clipPath><clipPath id="70d01be376"><path d="M 0.898438 0.429688 L 74 0.429688 L 74 37.128906 L 0.898438 37.128906 Z M 0.898438 0.429688 "/></clipPath><clipPath id="0fbc246b4e"><path d="M 12 0.429688 L 89 0.429688 L 89 37.128906 L 12 37.128906 Z M 12 0.429688 "/></clipPath><clipPath id="c306cb6e2c"><path d="M 0.898438 0.429688 L 52 0.429688 L 52 37.128906 L 0.898438 37.128906 Z M 0.898438 0.429688 "/></clipPath><clipPath id="34a287ab89"><path d="M 29 0.429688 L 112 0.429688 L 112 37.128906 L 29 37.128906 Z M 29 0.429688 "/></clipPath><clipPath id="ee87b7e0ef"><path d="M 50 0.429688 L 127 0.429688 L 127 37.128906 L 50 37.128906 Z M 50 0.429688 "/></clipPath><clipPath id="1cf55be706"><path d="M 12 0.429688 L 90 0.429688 L 90 37.128906 L 12 37.128906 Z M 12 0.429688 "/></clipPath><clipPath id="3e37b4b026"><path d="M 65 0.429688 L 138.101562 0.429688 L 138.101562 37.128906 L 65 37.128906 Z M 65 0.429688 "/></clipPath><clipPath id="586604b401"><path d="M 50 0.429688 L 127 0.429688 L 127 37.128906 L 50 37.128906 Z M 50 0.429688 "/></clipPath><clipPath id="12909d909b"><path d="M 87 0.429688 L 138.101562 0.429688 L 138.101562 37.128906 L 87 37.128906 Z M 87 0.429688 "/></clipPath><clipPath id="956d39e396"><rect x="0" width="139" y="0" height="38"/></clipPath><clipPath id="8314936660"><path d="M 0.898438 0.8125 L 74 0.8125 L 74 37.75 L 0.898438 37.75 Z M 0.898438 0.8125 "/></clipPath><clipPath id="2a831dbd80"><path d="M 12 0.8125 L 89 0.8125 L 89 37.75 L 12 37.75 Z M 12 0.8125 "/></clipPath><clipPath id="5faa978382"><path d="M 0.898438 0.8125 L 52 0.8125 L 52 37.75 L 0.898438 37.75 Z M 0.898438 0.8125 "/></clipPath><clipPath id="1ac5cdcdf5"><path d="M 29 0.8125 L 112 0.8125 L 112 37.75 L 29 37.75 Z M 29 0.8125 "/></clipPath><clipPath id="60a811a219"><path d="M 50 0.8125 L 127 0.8125 L 127 37.75 L 50 37.75 Z M 50 0.8125 "/></clipPath><clipPath id="16c13f9d16"><path d="M 12 0.8125 L 90 0.8125 L 90 37.75 L 12 37.75 Z M 12 0.8125 "/></clipPath><clipPath id="2e95db5767"><path d="M 65 0.8125 L 138.101562 0.8125 L 138.101562 37.75 L 65 37.75 Z M 65 0.8125 "/></clipPath><clipPath id="6f3e41880c"><path d="M 50 0.8125 L 127 0.8125 L 127 37.75 L 50 37.75 Z M 50 0.8125 "/></clipPath><clipPath id="48e27327f0"><path d="M 87 0.8125 L 138.101562 0.8125 L 138.101562 37.75 L 87 37.75 Z M 87 0.8125 "/></clipPath><clipPath id="e99ea99985"><rect x="0" width="139" y="0" height="38"/></clipPath></defs><g id="5d07ee4262"><g clip-rule="nonzero" clip-path="url(#cedbb51542)"><path style=" stroke:none;fill-rule:evenodd;fill:#ffffff;fill-opacity:1;" d="M 139.0625 42.164062 C 138.191406 42.265625 137.300781 42.316406 136.390625 42.316406 L 88.324219 42.316406 C 87.414062 42.316406 86.519531 42.265625 85.652344 42.164062 L 85.652344 69.039062 C 85.652344 71.398438 85.035156 73.710938 83.847656 75.746094 L 71.03125 97.847656 C 67.484375 103.953125 65.625 110.890625 65.625 117.941406 L 65.625 199.207031 C 65.625 210.273438 74.585938 219.234375 85.652344 219.234375 L 139.0625 219.234375 C 150.125 219.234375 159.089844 210.273438 159.089844 199.207031 L 159.089844 116.148438 C 159.089844 110.265625 157.535156 104.488281 154.582031 99.398438 L 140.863281 75.75 C 139.679688 73.714844 139.0625 71.402344 139.0625 69.039062 Z M 80.761719 33.738281 C 79.625 32.203125 78.976562 30.414062 78.976562 28.511719 L 78.976562 22.738281 C 78.976562 16.964844 84.949219 12.273438 92.328125 12.273438 L 132.382812 12.273438 C 139.761719 12.273438 145.738281 16.964844 145.738281 22.738281 L 145.738281 28.511719 C 145.738281 30.414062 145.085938 32.203125 143.949219 33.738281 C 141.824219 34.945312 139.1875 35.640625 136.390625 35.640625 L 88.320312 35.640625 C 85.527344 35.640625 82.890625 34.945312 80.761719 33.738281 Z M 80.761719 33.738281 "/></g><g transform="matrix(1,0,0,1,43,133)"><g clip-path="url(#956d39e396)"><g clip-rule="nonzero" clip-path="url(#70d01be376)"><path style="fill:none;stroke-width:10;stroke-linecap:round;stroke-linejoin:miter;stroke:#dc2626;stroke-opacity:1;stroke-miterlimit:4;" d="M 5.001114 4.997853 L 71.564875 5.000914 " transform="matrix(-0.321922,0.430934,-0.430934,-0.321922,46.580121,3.93424)"/></g><g clip-rule="nonzero" clip-path="url(#0fbc246b4e)"><path style="fill:none;stroke-width:10;stroke-linecap:round;stroke-linejoin:miter;stroke:#dc2626;stroke-opacity:1;stroke-miterlimit:4;" d="M 4.999605 4.995888 L 63.282959 5.003274 " transform="matrix(-0.254139,-0.474079,0.474079,-0.254139,56.749806,36.585174)"/></g><g clip-rule="nonzero" clip-path="url(#c306cb6e2c)"><path style="fill:none;stroke-width:10;stroke-linecap:round;stroke-linejoin:miter;stroke:#dc2626;stroke-opacity:1;stroke-miterlimit:4;" d="M 5.001722 4.996825 L 62.156246 5.001327 " transform="matrix(-0.283259,-0.457277,0.457277,-0.283259,20.229508,36.73382)"/></g><g clip-rule="nonzero" clip-path="url(#34a287ab89)"><path style="fill:none;stroke-width:10;stroke-linecap:round;stroke-linejoin:miter;stroke:#dc2626;stroke-opacity:1;stroke-miterlimit:4;" d="M 5.002611 4.999857 L 71.562026 4.9971 " transform="matrix(-0.321922,0.430934,-0.430934,-0.321922,84.882248,3.93424)"/></g><g clip-rule="nonzero" clip-path="url(#ee87b7e0ef)"><path style="fill:none;stroke-width:10;stroke-linecap:round;stroke-linejoin:miter;stroke:#dc2626;stroke-opacity:1;stroke-miterlimit:4;" d="M 4.997368 5.00006 L 63.284153 5.001046 " transform="matrix(-0.254139,-0.474079,0.474079,-0.254139,95.051947,36.585174)"/></g><g clip-rule="nonzero" clip-path="url(#1cf55be706)"><path style="fill:none;stroke-width:10;stroke-linecap:round;stroke-linejoin:miter;stroke:#dc2626;stroke-opacity:1;stroke-miterlimit:4;" d="M 4.999221 5.000862 L 62.157569 4.99919 " transform="matrix(-0.283259,-0.457277,0.457277,-0.283259,58.531642,36.73382)"/></g><g clip-rule="nonzero" clip-path="url(#3e37b4b026)"><path style="fill:none;stroke-width:10;stroke-linecap:round;stroke-linejoin:miter;stroke:#dc2626;stroke-opacity:1;stroke-miterlimit:4;" d="M 4.997223 4.998539 L 71.560984 5.0016 " transform="matrix(0.321922,-0.430934,0.430934,0.321922,92.299742,33.708394)"/></g><g clip-rule="nonzero" clip-path="url(#586604b401)"><path style="fill:none;stroke-width:10;stroke-linecap:round;stroke-linejoin:miter;stroke:#dc2626;stroke-opacity:1;stroke-miterlimit:4;" d="M 5.002044 4.998804 L 63.278998 5.002759 " transform="matrix(0.254139,0.474079,-0.474079,0.254139,82.122051,1.05746)"/></g><g clip-rule="nonzero" clip-path="url(#12909d909b)"><path style="fill:none;stroke-width:10;stroke-linecap:round;stroke-linejoin:miter;stroke:#dc2626;stroke-opacity:1;stroke-miterlimit:4;" d="M 5.00107 5.004577 L 62.159418 5.002905 " transform="matrix(0.283259,0.457277,-0.457277,0.283259,118.649221,0.908814)"/></g></g></g><g transform="matrix(1,0,0,1,43,165)"><g clip-path="url(#e99ea99985)"><g clip-rule="nonzero" clip-path="url(#8314936660)"><path style="fill:none;stroke-width:10;stroke-linecap:round;stroke-linejoin:miter;stroke:#dc2626;stroke-opacity:1;stroke-miterlimit:4;" d="M 4.999798 4.998836 L 71.563559 5.001897 " transform="matrix(-0.321922,0.430934,-0.430934,-0.321922,46.580121,4.458561)"/></g><g clip-rule="nonzero" clip-path="url(#2a831dbd80)"><path style="fill:none;stroke-width:10;stroke-linecap:round;stroke-linejoin:miter;stroke:#dc2626;stroke-opacity:1;stroke-miterlimit:4;" d="M 5.001053 4.996664 L 63.278007 5.00062 " transform="matrix(-0.254139,-0.474079,0.474079,-0.254139,56.749806,37.109495)"/></g><g clip-rule="nonzero" clip-path="url(#5faa978382)"><path style="fill:none;stroke-width:10;stroke-linecap:round;stroke-linejoin:miter;stroke:#dc2626;stroke-opacity:1;stroke-miterlimit:4;" d="M 5.003142 4.997705 L 62.157666 5.002206 " transform="matrix(-0.283259,-0.457277,0.457277,-0.283259,20.229508,37.258156)"/></g><g clip-rule="nonzero" clip-path="url(#1ac5cdcdf5)"><path style="fill:none;stroke-width:10;stroke-linecap:round;stroke-linejoin:miter;stroke:#dc2626;stroke-opacity:1;stroke-miterlimit:4;" d="M 5.001295 5.00084 L 71.56071 4.998084 " transform="matrix(-0.321922,0.430934,-0.430934,-0.321922,84.882248,4.458561)"/></g><g clip-rule="nonzero" clip-path="url(#60a811a219)"><path style="fill:none;stroke-width:10;stroke-linecap:round;stroke-linejoin:miter;stroke:#dc2626;stroke-opacity:1;stroke-miterlimit:4;" d="M 4.998816 5.000836 L 63.279201 4.998391 " transform="matrix(-0.254139,-0.474079,0.474079,-0.254139,95.051947,37.109495)"/></g><g clip-rule="nonzero" clip-path="url(#16c13f9d16)"><path style="fill:none;stroke-width:10;stroke-linecap:round;stroke-linejoin:miter;stroke:#dc2626;stroke-opacity:1;stroke-miterlimit:4;" d="M 5.000641 5.001742 L 62.15899 5.00007 " transform="matrix(-0.283259,-0.457277,0.457277,-0.283259,58.531642,37.258156)"/></g><g clip-rule="nonzero" clip-path="url(#2e95db5767)"><path style="fill:none;stroke-width:10;stroke-linecap:round;stroke-linejoin:miter;stroke:#dc2626;stroke-opacity:1;stroke-miterlimit:4;" d="M 4.99854 4.997555 L 71.562301 5.000617 " transform="matrix(0.321922,-0.430934,0.430934,0.321922,92.299742,34.232715)"/></g><g clip-rule="nonzero" clip-path="url(#6f3e41880c)"><path style="fill:none;stroke-width:10;stroke-linecap:round;stroke-linejoin:miter;stroke:#dc2626;stroke-opacity:1;stroke-miterlimit:4;" d="M 5.000596 4.998027 L 63.27755 5.001983 " transform="matrix(0.254139,0.474079,-0.474079,0.254139,82.122051,1.581781)"/></g><g clip-rule="nonzero" clip-path="url(#48e27327f0)"><path style="fill:none;stroke-width:10;stroke-linecap:round;stroke-linejoin:miter;stroke:#dc2626;stroke-opacity:1;stroke-miterlimit:4;" d="M 4.999673 5.003712 L 62.158022 5.00204 " transform="matrix(0.283259,0.457277,-0.457277,0.283259,118.649221,1.433135)"/></g></g></g></g></svg>