<?xml version="1.0" encoding="UTF-8"?>
<svg width="1200pt" height="1200pt" version="1.1" viewBox="0 0 1200 1200" xmlns="http://www.w3.org/2000/svg">
 <path d="m839.48 1049h75.516c41.484 0 75.516-33.984 75.516-75.516v-528.98c0-26.484-10.5-52.5-29.484-71.016l-164.48-164.48v151.97c0 31.5-28.5 57.516-63 57.516h-267.05c-34.5 0-63-26.016-63-57.516v-210h-118.5c-41.484 0-75.516 33.984-75.516 75.516v747c0 41.484 33.984 75.516 75.516 75.516h75.516v-358.5c0-40.5 33-73.5 74.016-73.5h330.98c41.016 0 74.016 33 74.016 73.5v308.48z" fill="#fff"/>
 <path d="m434.48 666.98c-12.984 0-24 10.5-24 23.484v358.5h378.98v-358.5c0-12.984-11.016-23.484-24-23.484z" fill="#fff"/>
 <path d="m733.5 368.48c8.0156 0 12.984-4.5 12.984-7.5v-196.5c-15-9-32.016-13.5-49.5-13.5h-243.47v210c0 3 5.0156 7.5 12.984 7.5z" fill="#fff"/>
</svg>
