<?xml version="1.0" encoding="UTF-8"?>
<svg width="1200pt" height="1200pt" version="1.1" viewBox="0 0 1200 1200" xmlns="http://www.w3.org/2000/svg">
 <path d="m1022.6 286.13h-190.13c-2.625-54-47.625-97.5-102.38-97.5h-260.26c-54.75 0-99.75 43.5-102.38 97.5h-190.13c-56.25 0-102.38 46.125-102.38 102.75v519.74c0 56.625 46.125 102.75 102.38 102.75h845.26c56.25 0 102.38-46.125 102.38-102.75v-519.74c0-56.625-46.125-102.75-102.38-102.75zm-422.63 587.63c-124.13 0-225-100.88-225-225s100.88-225 225-225 225 100.88 225 225-100.88 225-225 225z" fill="#fff"/>
 <path d="m750 648.74c0 82.828-67.172 150-150 150s-150-67.172-150-150c0-82.828 67.172-150 150-150s150 67.172 150 150" fill="#fff"/>
</svg>
